<?xml version="1.0" standalone="no"?>
<!DOCTYPE svg PUBLIC "-//W3C//DTD SVG 1.1//EN" "http://www.w3.org/Graphics/SVG/1.1/DTD/svg11.dtd" >
<!--
2013-9-30: Created.
-->
<svg>
<metadata>
Created by iconfont
</metadata>
<defs>

<font id="iconfont" horiz-adv-x="1024" >
  <font-face
    font-family="iconfont"
    font-weight="500"
    font-stretch="normal"
    units-per-em="1024"
    ascent="896"
    descent="-128"
  />
    <missing-glyph />
    
    <glyph glyph-name="icon_dropDown" unicode="&#59261;" d="M768-128l768 1024H0z"  horiz-adv-x="1536" />

    
    <glyph glyph-name="icon_lastpage" unicode="&#59259;" d="M866.461538 384L0-128V896zM945.230769 896h236.307693v-945.230769h-236.307693z"  horiz-adv-x="1181" />

    
    <glyph glyph-name="icon_afterpage" unicode="&#59260;" d="M866.461538 384L0-128V896zM1260.307692 384L393.846154-128V896z"  horiz-adv-x="1260" />

    
    <glyph glyph-name="icon_firstPage" unicode="&#59257;" d="M315.076923 384L1181.538462-128V896zM0 896h236.307692v-945.230769H0z"  horiz-adv-x="1181" />

    
    <glyph glyph-name="icon_beforePage" unicode="&#59258;" d="M393.846154 384L1260.307692-128V896zM0 384L866.461538-128V896z"  horiz-adv-x="1260" />

    
    <glyph glyph-name="icon_desktop" unicode="&#59018;" d="M960 832H64a64 64 0 0 1-64-64v-576a64 64 0 0 1 64-64h319.936c-0.128-46.272-1.984-106.368-19.52-128h-12.928A31.744 31.744 0 0 1 320-32c0-17.664 14.08-32 31.488-32h320.96A31.744 31.744 0 0 1 704-32c0 17.664-14.08 32-31.488 32h-12.928c-17.6 21.632-19.392 81.728-19.52 128H960a64 64 0 0 1 64 64V768a64 64 0 0 1-64 64zM448 128l-0.064-0.128L448 128z m128.064-0.128L576 128h0.064v-0.128zM960 256H64V768h896v-512z"  horiz-adv-x="1024" />

    
    <glyph glyph-name="icon_cursor_alt" unicode="&#59019;" d="M316.700508 884.696868A31.642821 31.642821 0 0 1 260.819286 864.318891v-825.687775a31.642821 31.642821 0 0 1 57.020363-18.859122l141.506697 190.616355 98.156031-280.798395a68.98135 68.98135 0 0 1 130.241852 45.565662l-96.320748 275.482401 221.373177-42.844379a31.579536 31.579536 0 0 1 30.187251 51.387941L316.700508 884.696868z m177.89594-550.774945a31.326393 31.326393 0 0 1-31.389678-12.214129l-139.038556-187.325502V777.554275l412.87553-490.590299-242.447296 46.957947z"  horiz-adv-x="1024" />

    
    <glyph glyph-name="icon_datareport_alt" unicode="&#59020;" d="M128 896a64 64 0 0 1-64-64v-896a64 64 0 0 1 64-64h832a64 64 0 0 1 64 64V832a64 64 0 0 1-64 64H128z m768-348.416V0h-192V547.584h192zM640 704v-704h-192V704h192z m-256-391.104V0H192v312.896h192z"  horiz-adv-x="1024" />

    
    <glyph glyph-name="icon_currency_alt" unicode="&#59021;" d="M544 832C278.912 832 64 617.088 64 352s214.912-480 480-480 480 214.912 480 480S809.088 832 544 832z m54.848-448C692.096 384 768 312.256 768 224s-75.904-160-169.152-160H576v-32a32 32 0 0 0-64 0v32h-22.848C395.904 64 320 135.744 320 224a32 32 0 0 0 64 0c0-52.928 47.168-96 105.152-96H512v192h-22.848C395.904 320 320 391.744 320 480s75.904 160 169.152 160H512V672a32 32 0 0 0 64 0v-32h22.848C692.096 640 768 568.256 768 480a32 32 0 0 0-64 0c0 52.928-47.168 96-105.152 96H576v-192h22.848zM384 480c0-52.928 47.168-96 105.152-96H512v192h-22.848C431.168 576 384 532.928 384 480z m214.848-352C656.832 128 704 171.072 704 224s-47.168 96-105.152 96H576v-192h22.848z"  horiz-adv-x="1024" />

    
    <glyph glyph-name="icon_currency" unicode="&#59022;" d="M544 832C278.912 832 64 617.088 64 352s214.912-480 480-480 480 214.912 480 480S809.088 832 544 832z m0-896C314.624-64 128 122.624 128 352S314.624 768 544 768s416-186.624 416-416-186.624-416-416-416z m54.848 640C656.832 576 704 532.928 704 480a32 32 0 0 1 64 0c0 88.256-75.904 160-169.152 160H576V672a32 32 0 0 1-64 0v-32h-22.848C395.904 640 320 568.256 320 480s75.904-160 169.152-160H512v-192h-22.848C431.168 128 384 171.072 384 224a32 32 0 0 1-64 0c0-88.256 75.904-160 169.152-160H512v-32a32 32 0 0 1 64 0v32h22.848C692.096 64 768 135.744 768 224s-75.904 160-169.152 160H576v192h22.848z m0-256C656.832 320 704 276.928 704 224s-47.168-96-105.152-96H576v192h22.848zM512 384h-22.848C431.168 384 384 427.072 384 480s47.168 96 105.152 96H512v-192z"  horiz-adv-x="1024" />

    
    <glyph glyph-name="icon_dislike_alt" unicode="&#59023;" d="M156.8 191.872h289.984v-174.784c-4.736-78.72 17.92-145.152 66.304-145.088 84.224 0.128 81.856 68.032 81.856 68.032 14.976 240.96 237.056 315.84 237.056 315.84v512l-29.504 3.968C560.384 771.84 705.664 895.872 307.84 895.872 5.76 895.872 0 630.016 0 447.872s83.008-256 156.8-256z m803.2 640a64 64 0 0 1-64-64v-510.016a64 64 0 0 1 128 0V767.872a64 64 0 0 1-64 64z"  horiz-adv-x="1024" />

    
    <glyph glyph-name="icon_document" unicode="&#59024;" d="M128-128h770.688a64 64 0 0 1 64 64V832a64 64 0 0 1-64 64H128a64 64 0 0 1-64-64v-896a64 64 0 0 1 64-64zM480 704h258.688a32 32 0 0 0 0-64H480a32 32 0 0 0 0 64z m-192-192h450.688a32 32 0 0 0 0-64H288a32 32 0 0 0 0 64z m0-192h450.688a32 32 0 0 0 0-64H288a32 32 0 0 0 0 64z m0-192h450.688a32 32 0 0 0 0-64H288a32 32 0 0 0 0 64z"  horiz-adv-x="1024" />

    
    <glyph glyph-name="icon_document_alt" unicode="&#59025;" d="M128-128h768a64 64 0 0 1 64 64V832a64 64 0 0 1-64 64H128a64 64 0 0 1-64-64v-896a64 64 0 0 1 64-64zM128 832h768v-896H128V832z m608-128h-256a32 32 0 0 1 0-64h256a32 32 0 0 1 0 64z m0-192H288a32 32 0 0 1 0-64h448a32 32 0 0 1 0 64z m0-192H288a32 32 0 0 1 0-64h448a32 32 0 0 1 0 64z m0-192H288a32 32 0 0 1 0-64h448a32 32 0 0 1 0 64z"  horiz-adv-x="1024" />

    
    <glyph glyph-name="icon_download" unicode="&#59026;" d="M512 128l320 320h-192V832h-256l1.152-384H192zM128 0v-128h768v256h-128v-128H256v128H128z"  horiz-adv-x="1024" />

    
    <glyph glyph-name="icon_drawer" unicode="&#59027;" d="M896 768c-17.984 40-50.624 64-86.016 64H208c-35.328 0-64-24-80-64L0 256v-289.024a32 32 0 0 1 32-32h960a32 32 0 0 1 32 32v285.056l-0.832 2.944L896 768z m-707.52-21.312C191.424 753.28 198.912 768 208 768h601.984c8.768 0 18.88-9.024 25.984-22.784l112.704-458.048c0-0.128-0.192 0-0.192-0.128a32 32 0 0 0-32-32l-0.128-0.064H672a32 32 0 0 1-32-32V160a32 32 0 0 0-32-32c-0.64 0-1.28-0.832-1.92-1.024h-188.992C416.64 127.168 416.64 128 416 128a32 32 0 0 0-32 32v62.976a32 32 0 0 1-32 32H107.648l-0.128 0.064a32.448 32.448 0 0 0-32.512 32c0 0.448-0.512 0.128-0.64 0.448L188.48 746.688z"  horiz-adv-x="1024" />

    
    <glyph glyph-name="icon_drawer_alt" unicode="&#59028;" d="M809.984 832H208c-35.328 0-64-24-80-64L0 321.024V-32a32 32 0 0 1 32-32h960a32 32 0 0 1 32 32V317.056L896 768c-17.984 40-50.624 64-86.016 64zM188.48 746.688C191.424 753.28 198.912 768 208 768h601.984c8.768 0 18.88-9.024 25.984-22.784L956.608 320H672a32 32 0 0 1-32-32v-96h-256v96a32 32 0 0 1-32 32H66.304L188.48 746.688zM960 0H64v256h256v-96a32 32 0 0 1 32-32h320a32 32 0 0 1 32 32v96h256v-256z"  horiz-adv-x="1024" />

    
    <glyph glyph-name="icon_drive" unicode="&#59029;" d="M960 768c-3.968 62.656-57.28 128-128 128H192C121.28 896 67.968 830.656 64 768L0 82.688c0-3.008 0.704-6.72 0.896-9.92-0.192-2.944-0.896-5.76-0.896-8.768v-64c0-70.72 57.28-128 128-128h768c70.72 0 128 57.28 128 128v64c0 3.008-0.704 5.824-0.896 8.704 0.192 3.264 0.896 6.976 0.896 9.984L960 768zM64 0v64c0 35.264 28.736 64 64 64h768c35.264 0 64-28.736 64-64v-64c0-35.264-28.736-64-64-64H128c-35.264 0-64 28.736-64 64zM127.872 763.904C129.856 795.392 158.336 832 192 832h640c33.664 0 62.144-36.608 64.256-69.952l54.4-582.784A126.144 126.144 0 0 1 896 192H128c-19.648 0-38.08-4.8-54.72-12.736l54.592 584.64zM832 32a32 32 0 1 1 64 0 32 32 0 1 1-64 0z m-128 0a32 32 0 1 1 64 0 32 32 0 1 1-64 0zM160 0h448a32 32 0 0 1 0 64H160a32 32 0 0 1 0-64z"  horiz-adv-x="1024" />

    
    <glyph glyph-name="icon_documents_alt" unicode="&#59030;" d="M128 0h64v-64a64 64 0 0 1 64-64h640a64 64 0 0 1 64 64V704a64 64 0 0 1-64 64h-64V832a64 64 0 0 1-64 64H128a64 64 0 0 1-64-64v-768a64 64 0 0 1 64-64z m640 64H128V832h640v-768z m128 640v-768H256v64h512a64 64 0 0 1 64 64V704h64zM320 672a32 32 0 0 1 32-32h320a32 32 0 0 1 0 64H352a32 32 0 0 1-32-32z m-96-224h448a32 32 0 0 1 0 64H224a32 32 0 0 1 0-64z m0-128h448a32 32 0 0 1 0 64H224a32 32 0 0 1 0-64z m0-128h448a32 32 0 0 1 0 64H224a32 32 0 0 1 0-64z"  horiz-adv-x="1024" />

    
    <glyph glyph-name="icon_documents" unicode="&#59031;" d="M128 0h64v-64a64 64 0 0 1 64-64h640a64 64 0 0 1 64 64V704a64 64 0 0 1-64 64h-64V832a64 64 0 0 1-64 64H128a64 64 0 0 1-64-64v-768a64 64 0 0 1 64-64zM896 704v-768H256v64h512a64 64 0 0 1 64 64V704h64z m-224 64a32 32 0 0 0 0-64h-258.688a32 32 0 0 0 0 64H672zM221.312 576H672a32 32 0 0 0 0-64H221.312a32 32 0 0 0 0 64z m0-192H672a32 32 0 0 0 0-64H221.312a32 32 0 0 0 0 64z m0-192H672a32 32 0 0 0 0-64H221.312a32 32 0 0 0 0 64z"  horiz-adv-x="1024" />

    
    <glyph glyph-name="icon_drive_alt" unicode="&#59032;" d="M128-128h768c70.72 0 128 57.28 128 128v64c0 3.008-0.704 5.824-0.896 8.704 0.192 3.264 0.896 6.976 0.896 9.984L960 768c-3.968 62.656-57.28 128-128 128H192C121.28 896 67.968 830.656 64 768L0 82.688c0-3.008 0.704-6.72 0.896-9.92-0.192-2.944-0.896-5.76-0.896-8.768v-64c0-70.72 57.28-128 128-128z m-64 128v64c0 35.264 28.736 64 64 64h768c35.264 0 64-28.736 64-64v-64c0-35.264-28.736-64-64-64H128c-35.264 0-64 28.736-64 64z m768 32a32 32 0 1 1 64 0 32 32 0 1 1-64 0z m-121.344 1.344a32 32 0 1 1 64 0 32 32 0 1 1-64 0zM160 0h448a32 32 0 0 1 0 64H160a32 32 0 0 1 0-64z"  horiz-adv-x="1024" />

    
    <glyph glyph-name="icon_easel" unicode="&#59033;" d="M289.737914 369.841547a31.888391 31.888391 0 0 1 25.191829 12.308919l140.436474 180.807177 96.175388-112.948681c6.122571-7.079223 13.010464-10.204285 24.426508-11.224714 9.247633 0.063777 18.176383 4.145491 24.235177 11.416044l223.218738 265.885405a31.824614 31.824614 0 0 1-3.954161 44.898855 31.824614 31.824614 0 0 1-44.898855-3.95416l-198.98356-236.994523-97.068263 114.16044c-6.313901 7.270553-17.921276 10.650723-25.000498 11.160937a31.92028 31.92028 0 0 1-24.490285-12.308919l-164.480321-211.738917a31.888391 31.888391 0 0 1 25.191829-51.467863zM989.624322 896H98.15246C80.167407 896 65.562524 881.714001 65.562524 864.111609s14.604883-31.888391 32.589936-31.888391H129.339307v-573.99104a63.776782 63.776782 0 0 1 63.776782-63.776783h318.883911v-99.555557l-180.870954-163.842553a31.888391 31.888391 0 1 1 42.857997-47.194819L512 8.864959V-92.540125a31.888391 31.888391 0 0 1 63.776782 0v101.405084l138.012957-125.002493a31.792726 31.792726 0 0 1 45.026408 2.168411 31.888391 31.888391 0 0 1-2.16841 45.026408L575.776782 94.899838V194.455395h318.883911a63.776782 63.776782 0 0 1 63.776783 63.776783V832.223218h31.186846C1007.609375 832.223218 1022.214258 846.509217 1022.214258 864.111609s-14.604883 31.888391-32.589936 31.888391zM894.660693 258.232178H193.116089V832.223218h701.544604v-573.99104z"  horiz-adv-x="1024" />

    
    <glyph glyph-name="icon_error-circle" unicode="&#59034;" d="M512-128c282.752 0 512 229.248 512 512S794.752 896 512 896 0 666.752 0 384s229.248-512 512-512z m64 448a64 64 0 0 0-128 0V640a64 64 0 0 0 128 0v-320z m-64-126.976a64 64 0 1 0-0.032-128.032A64 64 0 0 0 512 193.024z"  horiz-adv-x="1024" />

    
    <glyph glyph-name="icon_error-triangle" unicode="&#59035;" d="M65.984-128h889.984a64 64 0 0 1 56.512 94.144l-444.032 832A63.904 63.904 0 0 1 512.064 832H512c-23.616 0-45.248-12.992-56.384-33.792L9.6-33.792a64.128 64.128 0 0 1 1.472-63.104A64.16 64.16 0 0 1 65.984-128zM512 128a64 64 0 1 0-0.032-128.032A64 64 0 0 0 512 128z m-64 126.976v256a64 64 0 0 0 128 0v-256a64 64 0 0 0-128 0z"  horiz-adv-x="1024" />

    
    <glyph glyph-name="icon_error-oct_alt" unicode="&#59036;" d="M742.848 877.248A64 64 0 0 1 697.536 896H326.464c-16.96 0-33.28-6.72-45.248-18.752l-262.4-262.464A63.52 63.52 0 0 1 0 569.536V198.4c0-16.96 6.72-33.28 18.752-45.248l262.4-262.464c12.032-11.968 28.288-18.688 45.312-18.688H697.6c16.96 0 33.28 6.72 45.248 18.752l262.4 262.464c12.032 11.968 18.752 28.224 18.752 45.248V569.536c0 16.96-6.72 33.28-18.752 45.248l-262.4 262.464zM960 198.464L697.536-64H326.464L64 198.464V569.536L326.464 832H697.6l262.4-262.464v-371.072zM512 704a64 64 0 0 1-64-64v-320a64 64 0 0 1 128 0V640a64 64 0 0 1-64 64z m-64-576a64 64 0 1 1 128 0 64 64 0 1 1-128 0z"  horiz-adv-x="1024" />

    
    <glyph glyph-name="icon_film" unicode="&#59037;" d="M960 896H64a64 64 0 0 1-64-64v-896a64 64 0 0 1 64-64h896a64 64 0 0 1 64 64V832a64 64 0 0 1-64 64zM192 320v-128H64v128h128z m-128 128v128h128v-128H64z m192-192h512v-320H256V256z m512 64H256V832h512v-512z m64 0h128v-128h-128v128z m0 128v128h128v-128h-128z m0 256V832h128v-128h-128zM192 704H64V832h128v-128zM64 64h128v-128H64v128z m768 0h128v-128h-128v128z"  horiz-adv-x="1024" />

    
    <glyph glyph-name="icon_error-circle_alt" unicode="&#59038;" d="M512 896C229.248 896 0 666.752 0 384s229.248-512 512-512 512 229.248 512 512S794.752 896 512 896z m0-960C264.96-64 64 136.96 64 384S264.96 832 512 832s448-200.96 448-448-200.96-448-448-448z m0 768a64 64 0 0 1-64-64v-320a64 64 0 0 1 128 0V640a64 64 0 0 1-64 64z m-64-574.976a64 64 0 1 1 128 0 64 64 0 1 1-128 0z"  horiz-adv-x="1024" />

    
    <glyph glyph-name="icon_error-oct" unicode="&#59039;" d="M742.848 877.248A64 64 0 0 1 697.536 896H326.464c-16.96 0-33.28-6.72-45.248-18.752l-262.4-262.464A63.52 63.52 0 0 1 0 569.536V198.4c0-16.96 6.72-33.28 18.752-45.248l262.4-262.464c12.032-11.968 28.288-18.688 45.312-18.688H697.6c16.96 0 33.28 6.72 45.248 18.752l262.4 262.464c12.032 11.968 18.752 28.224 18.752 45.248V569.536c0 16.96-6.72 33.28-18.752 45.248l-262.4 262.464zM512 256a64 64 0 0 0-64 64V704a64 64 0 0 0 128 0v-384a64 64 0 0 0-64-64z m64-192a64 64 0 1 0-128.032 0.032A64 64 0 0 0 576 64z"  horiz-adv-x="1024" />

    
    <glyph glyph-name="icon_easel_alt" unicode="&#59040;" d="M958.437476 896H129.339307a63.776782 63.776782 0 0 1 0-127.553564v-510.214258a63.776782 63.776782 0 0 1 63.776782-63.776783h318.883911v-99.555557l-180.870954-163.842553a31.888391 31.888391 0 1 1 42.857997-47.194819L512 8.864959V-92.540125a31.888391 31.888391 0 0 1 63.776782 0v101.405084l138.012957-125.002493a31.792726 31.792726 0 0 1 45.026408 2.168411 31.888391 31.888391 0 0 1-2.16841 45.026408L575.776782 94.899838V194.455395h318.883911a63.776782 63.776782 0 0 1 63.776783 63.776783V768.446436a63.776782 63.776782 0 0 1 0 127.553564z m-137.311413-246.178379l-223.218737-215.24664a31.888391 31.888391 0 0 0-44.133534-0.127554l-98.535128 93.688093-142.541108-148.536126a31.984056 31.984056 0 0 0-45.090186-0.829098 31.888391 31.888391 0 0 0-0.892874 45.090185l164.480321 171.431991a32.175387 32.175387 0 0 0 44.962631 0.956651l99.491781-94.517191 201.215748 194.072749a31.888391 31.888391 0 0 0 45.090185-0.892875 31.888391 31.888391 0 0 0-0.829099-45.090185z"  horiz-adv-x="1024" />

    
    <glyph glyph-name="icon_error-triangle_alt" unicode="&#59041;" d="M1012.48-33.856l-444.032 832A63.904 63.904 0 0 1 512.064 832H512c-23.616 0-45.248-12.992-56.384-33.792L9.6-33.792a64.128 64.128 0 0 1 1.472-63.104A64.16 64.16 0 0 1 65.984-128h889.984a64 64 0 0 1 56.512 94.144zM65.984-64L512 768l444.032-832H65.984zM448 446.976v-192a64 64 0 0 1 128 0v192a64 64 0 0 1-128 0zM448 64a64 64 0 1 1 128 0 64 64 0 1 1-128 0z"  horiz-adv-x="1024" />

    
    <glyph glyph-name="icon_floppy_alt" unicode="&#59042;" d="M768 896H64a64 64 0 0 1-64-64v-896a64 64 0 0 1 64-64h896a64 64 0 0 1 64 64V704l-192 192h-64z m-64-320V832h64v-256a64 64 0 0 0-64-64H320a64 64 0 0 0-64 64V832h256v-256h192zM192 320a64 64 0 0 0 64 64h512a64 64 0 0 0 64-64v-384H192V320z"  horiz-adv-x="1024" />

    
    <glyph glyph-name="icon_folder-add" unicode="&#59043;" d="M960 704h-256a64 64 0 0 1-64-64s-8.32-58.688-64-64H128a64 64 0 0 1-64-64v-576a64 64 0 0 1 64-64h832a64 64 0 0 1 64 64V640a64 64 0 0 1-64 64z m-224-512h-160v-160a32 32 0 0 0-64 0v160h-160a32 32 0 0 0 0 64h160v160a32 32 0 0 0 64 0v-160h160a32 32 0 0 0 0-64z"  horiz-adv-x="1024" />

    
    <glyph glyph-name="icon_flowchart" unicode="&#59044;" d="M960 256v128a64 64 0 0 1-64 64H576v128h192a64 64 0 0 1 64 64V704a64 64 0 0 1-64 64H320a64 64 0 0 1-64-64v-64a64 64 0 0 1 64-64h192v-128H192a64 64 0 0 1-64-64v-128a64 64 0 0 1-64-64v-128a64 64 0 0 1 64-64h64a64 64 0 0 1 64 64v128a64 64 0 0 1-64 64v128h320v-128a64 64 0 0 1-64-64v-128a64 64 0 0 1 64-64h64a64 64 0 0 1 64 64v128a64 64 0 0 1-64 64v128h320v-128a64 64 0 0 1-64-64v-128a64 64 0 0 1 64-64h64a64 64 0 0 1 64 64v128a64 64 0 0 1-64 64zM320 704h448v-64H320V704zM192 128v-64H128v128h64v-64z m384-64h-64v128h64v-128z m320 64v64h64v-128h-64v64z"  horiz-adv-x="1024" />

    
    <glyph glyph-name="icon_floppy" unicode="&#59045;" d="M768 896H64a64 64 0 0 1-64-64v-896a64 64 0 0 1 64-64h896a64 64 0 0 1 64 64V704l-192 192h-64z m0-64v-256h-128V832h128z m-192 0v-256H256V832h320zM256-64V320h512v-384H256z m704 0h-128V320a64 64 0 0 1-64 64H256a64 64 0 0 1-64-64v-384H64V832h128v-256a64 64 0 0 1 64-64h512a64 64 0 0 1 64 64V805.504l128-128V-64z"  horiz-adv-x="1024" />

    
    <glyph glyph-name="icon_folder" unicode="&#59046;" d="M960 704H640a64 64 0 0 1-64-64s-8.32-58.688-64-64H64c-35.328 0-64-27.648-64-62.976V-64a64 64 0 0 1 64-64h896a64 64 0 0 1 64 64V640a64 64 0 0 1-64 64z"  horiz-adv-x="1024" />

    
    <glyph glyph-name="icon_folder_upload" unicode="&#59047;" d="M960 768H640a64 64 0 0 1-64-64s-8.32-58.688-64-64H64C28.672 640 0 612.352 0 577.024V0a64 64 0 0 1 64-64h384.192V256H312.384l199.808 256 199.808-256h-135.808v-320H960a64 64 0 0 1 64 64V704a64 64 0 0 1-64 64z"  horiz-adv-x="1024" />

    
    <glyph glyph-name="icon_flowchart_alt" unicode="&#59048;" d="M960 256v128a64 64 0 0 1-64 64H576v128h192a64 64 0 0 1 64 64V704a64 64 0 0 1-64 64H320a64 64 0 0 1-64-64v-64a64 64 0 0 1 64-64h192v-128H192a64 64 0 0 1-64-64v-128a64 64 0 0 1-64-64v-128a64 64 0 0 1 64-64h64a64 64 0 0 1 64 64v128a64 64 0 0 1-64 64v128h320v-128a64 64 0 0 1-64-64v-128a64 64 0 0 1 64-64h64a64 64 0 0 1 64 64v128a64 64 0 0 1-64 64v128h320v-128a64 64 0 0 1-64-64v-128a64 64 0 0 1 64-64h64a64 64 0 0 1 64 64v128a64 64 0 0 1-64 64z"  horiz-adv-x="1024" />

    
    <glyph glyph-name="icon_folder-alt" unicode="&#59049;" d="M960 704h-289.024c-35.328 0-75.968-17.984-94.976-64 0 0-8.32-58.688-64-64H64c-35.328 0-64-27.648-64-62.976V-64a64 64 0 0 1 64-64h896a64 64 0 0 1 64 64V640a64 64 0 0 1-64 64z m0-190.976V-64H64V512h448c2.048 0 4.032 0.128 6.08 0.32 60.032 5.696 97.152 47.68 114.304 90.88 16.64 41.792 45.632 36.8 45.632 36.8H960v-126.976z"  horiz-adv-x="1024" />

    
    <glyph glyph-name="icon_folder-add_alt" unicode="&#59050;" d="M960 704h-225.024c-35.328 0-75.968-17.984-94.976-64 0 0-8.32-58.688-64-64H128c-35.328 0-64-27.648-64-62.976V-64a64 64 0 0 1 64-64h832a64 64 0 0 1 64 64V640a64 64 0 0 1-64 64z m0-190.976V-64H128V512h448c2.048 0 4.032 0.128 6.08 0.32 60.032 5.696 97.152 47.744 114.304 90.944C713.024 644.992 742.016 640 742.016 640H960v-126.976zM704 256h-128v128a32 32 0 0 1-64 0v-128h-128a32 32 0 0 1 0-64h128v-128a32 32 0 0 1 64 0v128h128a32 32 0 0 1 0 64z"  horiz-adv-x="1024" />

    
    <glyph glyph-name="icon_folder-open_alt" unicode="&#59051;" d="M1024 577.024V704a64 64 0 0 1-64 64H640a64 64 0 0 1-64-64s-8.32-58.688-64-64H64C28.672 640 0 612.352 0 577.024V512h1024V577.024zM64-128h896a64 64 0 0 1 64 64V448H0v-512a64 64 0 0 1 64-64z m0 512h896v-448H64V384z"  horiz-adv-x="1024" />

    
    <glyph glyph-name="icon_folder-open" unicode="&#59052;" d="M960 768H640a64 64 0 0 1-64-64s-8.32-58.688-64-64H64C28.672 640 0 612.352 0 577.024V512h1024V704a64 64 0 0 1-64 64zM0-64a64 64 0 0 1 64-64h896a64 64 0 0 1 64 64V448H0v-512z"  horiz-adv-x="1024" />

    
    <glyph glyph-name="icon_gift" unicode="&#59053;" d="M960 640H578.688v-192H1024v128a64 64 0 0 1-64 64zM64 640a64 64 0 0 1-64-64v-128h448V640H64z m0-256v-448a64 64 0 0 1 64-64h320V384H64z m832-512a64 64 0 0 1 64 64V384H578.688v-512H896zM511.936 704.512h0.192A1.504 1.504 0 0 1 512 704h256c88.384 0 128 43.008 128 96s-39.616 96-128 96c-82.752 0-147.904-37.248-192-80.448a128.576 128.576 0 0 1-65.856 18.432c-23.168 0-44.608-6.528-63.424-17.152C402.688 859.52 337.92 896 256 896 167.616 896 128 852.992 128 800s39.616-96 128-96h256l-0.064 0.512zM832 800c0-26.432-34.816-32-64-32h-145.344c-0.512 0.896-0.96 1.856-1.472 2.688C653.696 802.304 702.976 832 768 832c29.184 0 64-5.568 64-32zM192 800c0 26.432 34.816 32 64 32 63.616 0 111.872-28.48 144.384-59.008-1.024-1.6-1.792-3.328-2.752-4.992H256c-29.184 0-64 5.568-64 32z"  horiz-adv-x="1024" />

    
    <glyph glyph-name="icon_globe" unicode="&#59054;" d="M963.776 203.584c-174.272-174.208-457.856-174.336-632.128 0-84.352 84.288-130.752 196.544-130.752 316.096s46.464 231.808 130.688 316.032A32 32 0 0 1 286.336 880.96c-96.384-96.32-149.44-224.64-149.44-361.28s53.12-265.024 149.44-361.344c81.344-81.408 183.616-128.96 289.664-143.872V-64h-96a32 32 0 0 1 0-64h256a32 32 0 0 1 0 64h-96v73.216c2.56-0.064 5.12-0.384 7.68-0.384a509.44 509.44 0 0 1 361.344 149.44 32 32 0 0 1-45.248 45.312zM647.68 896C439.808 896 271.36 727.488 271.36 519.68s168.512-376.32 376.32-376.32S1024 311.808 1024 519.68 855.488 896 647.68 896z m0-688.64c-172.224 0-312.32 140.096-312.32 312.32S475.456 832 647.68 832 960 691.904 960 519.68s-140.096-312.32-312.32-312.32z"  horiz-adv-x="1024" />

    
    <glyph glyph-name="icon_folder_download" unicode="&#59055;" d="M960 768H640a64 64 0 0 1-64-64s-8.32-58.688-64-64H64C28.672 640 0 612.352 0 577.024V0a64 64 0 0 1 64-64h896a64 64 0 0 1 64 64V704a64 64 0 0 1-64 64zM512.192-63.616l-199.808 256h135.808v256a64 64 0 0 0 128 0v-256h135.808l-199.808-256z"  horiz-adv-x="1024" />

    
    <glyph glyph-name="icon_gift_alt" unicode="&#59056;" d="M960 640H64a64 64 0 0 1-64-64v-192h64v-448a64 64 0 0 1 64-64h768a64 64 0 0 1 64 64V384h64v192a64 64 0 0 1-64 64zM64 576h384v-128H64v128z m64-640V384h320v-448H128z m768 0h-318.656V384H896v-448z m64 512H577.344v128H960v-128zM512 704l-0.064 0.512h0.192A1.504 1.504 0 0 1 512 704h256c88.384 0 128 43.008 128 96s-39.616 96-128 96c-82.752 0-147.904-37.248-192-80.448a128.576 128.576 0 0 1-65.856 18.432c-23.168 0-44.608-6.528-63.424-17.152C402.688 859.52 337.92 896 256 896 167.616 896 128 852.992 128 800s39.616-96 128-96h256z m320 96c0-26.432-34.816-32-64-32h-145.344c-0.512 0.896-0.96 1.856-1.472 2.688C653.696 802.304 702.976 832 768 832c29.184 0 64-5.568 64-32zM192 800c0 26.432 34.816 32 64 32 63.616 0 111.872-28.48 144.384-59.008-1.024-1.6-1.792-3.328-2.752-4.992H256c-29.184 0-64 5.568-64 32z"  horiz-adv-x="1024" />

    
    <glyph glyph-name="icon_globe_alt" unicode="&#59057;" d="M963.776 203.584c-174.272-174.208-457.856-174.336-632.128 0-84.352 84.288-130.752 196.544-130.752 316.096s46.464 231.808 130.688 316.032A32 32 0 0 1 286.336 880.96c-96.384-96.32-149.44-224.64-149.44-361.28s53.12-265.024 149.44-361.344c81.344-81.408 183.616-128.96 289.664-143.872V-64h-96a32 32 0 0 1 0-64h256a32 32 0 0 1 0 64h-96v73.216c2.56-0.064 5.12-0.384 7.68-0.384a509.44 509.44 0 0 1 361.344 149.44 32 32 0 0 1-45.248 45.312zM271.36 519.68a376.32 376.32 0 1 1 752.64 0 376.32 376.32 0 1 1-752.64 0z"  horiz-adv-x="1024" />

    
    <glyph glyph-name="icon_genius" unicode="&#59058;" d="M81.408 107.008c15.36-23.872 47.616-52.288 114.176-52.288 41.856 0 95.424 12.224 155.072 33.536C376.448-25.408 423.872-128 512-128c89.6 0 137.216 106.112 162.688 222.144 59.776-20.224 113.536-31.872 155.584-31.872 70.4 0 103.424 29.952 118.784 55.04 49.664 81.408-27.84 184.768-121.408 270.208 17.28 16.64 33.536 33.28 47.808 49.472 80.896 92.096 103.488 167.424 67.136 224-15.36 23.872-47.616 52.288-114.176 52.288-41.856 0-95.424-12.224-155.072-33.536C647.552 793.408 600.128 896 512 896c-89.6 0-137.216-106.112-162.688-222.144-59.776 20.288-113.536 31.872-155.584 31.872-70.4 0-103.488-29.952-118.784-55.04-49.664-81.408 27.84-184.768 121.408-270.208-17.28-16.704-33.536-33.28-47.808-49.472-80.896-92.096-103.488-167.488-67.136-224zM512-64c-41.408 0-78.144 69.184-101.568 176a1279.328 1279.328 0 0 1 104.128 50.88 1310.112 1310.112 0 0 1 99.968-46.144C591.232 7.232 554.048-64 512-64z m-128 448c0 23.488 0.704 46.4 1.664 68.928a1556.16 1556.16 0 0 0 57.088 38.72 1592.96 1592.96 0 0 0 67.456 40.832c22.592-12.288 45.376-25.152 68.416-39.168 20.608-12.608 40.384-25.472 59.584-38.4 1.088-23.168 1.792-46.72 1.792-70.912 0-23.488-0.704-46.4-1.664-68.928a1556.16 1556.16 0 0 0-57.088-38.72 1592.96 1592.96 0 0 0-67.456-40.832 1622.208 1622.208 0 0 0-68.416 39.168 1623.456 1623.456 0 0 0-59.584 38.4A1506.304 1506.304 0 0 0 384 384z m-63.68-24.064a1330.24 1330.24 0 0 0-27.456 21.44c8.832 7.488 17.984 14.976 27.328 22.464-0.128-8.576-0.192-15.808-0.192-19.84 0-4.672 0.128-13.504 0.32-24.064z m71.168 174.208c1.856 18.176 4.032 35.776 6.528 52.8 14.592-6.208 29.504-13.056 44.736-20.224-11.52-7.04-23.04-13.76-34.624-21.184-5.76-3.776-10.944-7.68-16.64-11.392z m185.472 34.176c16.512 8.32 32.64 16.064 48.448 23.168 2.688-18.112 4.992-36.992 6.976-56.384a1335.68 1335.68 0 0 1-20.352 12.8c-11.712 7.168-23.424 13.632-35.072 20.416z m126.72-160.256c9.408-7.168 18.624-14.336 27.456-21.44-8.832-7.488-17.984-14.912-27.392-22.464 0.192 8.576 0.256 15.808 0.256 19.84 0 4.672-0.128 13.504-0.32 24.064z m-71.168-174.208c-1.856-18.176-3.968-35.84-6.464-52.8a1260.16 1260.16 0 0 0-44.736 20.224c11.52 7.04 23.04 13.76 34.624 21.184 5.696 3.776 10.88 7.68 16.576 11.392z m-220.544-13.76c11.712-7.168 23.36-13.632 35.072-20.416-16.512-8.32-32.64-16.064-48.448-23.168a1234.304 1234.304 0 0 0-6.976 56.384c8.896-5.632 16.384-10.368 20.352-12.8z m482.432-69.44c-10.112-16.512-32.512-24.384-64.128-24.384-36.928 0-86.784 11.264-143.616 31.232 6.784 43.904 11.008 86.784 13.504 123.392 28.608 21.12 55.04 42.496 80.064 64 90.304-81.984 137.28-156.416 114.176-194.24zM828.416 649.28c29.312 0 50.368-7.36 60.352-22.912 24-37.312-21.312-112.896-109.76-197.056-27.52 22.4-54.656 42.88-79.104 60.224a1435.36 1435.36 0 0 1-14.208 126.784c56.768 21.056 106.368 32.96 142.72 32.96zM512 832c41.408 0 78.144-69.184 101.568-176-33.664-14.528-68.48-31.488-104.128-50.88a1308.16 1308.16 0 0 1-99.968 46.144C432.768 760.768 469.952 832 512 832zM129.6 617.344c10.112 16.512 32.512 24.384 64.128 24.384 36.928 0 86.784-11.264 143.616-31.232a1448.64 1448.64 0 0 1-13.504-123.392c-28.608-21.12-55.04-42.496-80.064-64-90.304 81.984-137.28 156.416-114.176 194.24z m194.432-338.816c2.624-37.76 6.976-81.792 14.208-126.784-56.704-21.056-106.304-32.96-142.656-32.96-29.312 0-50.368 7.36-60.352 22.912-24 37.312 21.312 112.896 109.76 197.056 27.456-22.4 54.592-42.944 79.04-60.224z"  horiz-adv-x="1024" />

    
    <glyph glyph-name="icon_group" unicode="&#59059;" d="M450.365235 741.913088c0 82.467315-71.619597 154.086912-154.086911 154.086912S142.191412 824.380403 142.191412 741.913088s71.619597-154.086912 154.086912-154.086911 154.086912 71.619597 154.086911 154.086911z m107.860839-585.530264c0 246.539059-127.953771 369.808588-269.652096 369.808588S18.921883 402.921883 18.921883 156.382824c0-168.879255 539.304191-168.879255 539.304191 0z m184.904294 311.563735c82.467315 0 154.086912 71.619597 154.086911 154.086912s-71.619597 154.086912-154.086911 154.086912-154.086912-71.619597-154.086912-154.086912 71.619597-154.086912 154.086912-154.086912z m-7.704346-61.634764c-42.589622 0-83.391837-12.511857-120.372695-34.823642 22.37342-60.15553 35.624894-131.466953 35.624894-215.105329 0-83.022028-55.348019-147.676896-150.327192-184.657755C618.135065-127.99998 1005.078117-106.735986 1005.078117 36.503207c0 246.539059-127.953771 369.808588-269.652095 369.808588z"  horiz-adv-x="1024" />

    
    <glyph glyph-name="icon_headphones" unicode="&#59060;" d="M960 256v128c0 294.144-225.344 448-448 448C294.784 832 64 675.008 64 384v-128a64 64 0 0 1-64-64v-128a64 64 0 0 1 64-64 64 64 0 0 1 128 0v256a64 64 0 0 1-64 64v64C128 636.096 321.216 768 512 768c184.96 0 384-120.128 384-384v-64a64 64 0 0 1-64-64v-256a64 64 0 0 1 128 0 64 64 0 0 1 64 64v128a64 64 0 0 1-64 64z"  horiz-adv-x="1024" />

    
    <glyph glyph-name="icon_heart" unicode="&#59061;" d="M1023.488 453.312C1020.8 610.368 893.376 750.336 736 750.336c-91.008 0-171.2-47.616-224-117.504-52.8 69.888-132.992 117.504-224 117.504-157.376 0-284.8-139.968-287.488-297.024H0c0-0.96 0.192-1.856 0.192-2.816 0-0.704-0.192-1.408-0.192-2.176 0-4.416 1.088-7.744 1.28-11.968C15.36 36.096 507.968-128 507.968-128s499.84 163.904 514.624 563.712c0.256 4.48 1.408 8 1.408 12.608 0 0.768-0.192 1.472-0.192 2.176 0 1.024 0.192 1.856 0.192 2.816h-0.512z"  horiz-adv-x="1024" />

    
    <glyph glyph-name="icon_grid-3x3" unicode="&#59062;" d="M128 576h128a64 64 0 0 1 64 64V768a64 64 0 0 1-64 64H128a64 64 0 0 1-64-64v-128a64 64 0 0 1 64-64z m320 0h128a64 64 0 0 1 64 64V768a64 64 0 0 1-64 64h-128a64 64 0 0 1-64-64v-128a64 64 0 0 1 64-64z m320 0h128a64 64 0 0 1 64 64V768a64 64 0 0 1-64 64h-128a64 64 0 0 1-64-64v-128a64 64 0 0 1 64-64zM64 320a64 64 0 0 1 64-64h128a64 64 0 0 1 64 64v128a64 64 0 0 1-64 64H128a64 64 0 0 1-64-64v-128z m320 0a64 64 0 0 1 64-64h128a64 64 0 0 1 64 64v128a64 64 0 0 1-64 64h-128a64 64 0 0 1-64-64v-128z m320 0a64 64 0 0 1 64-64h128a64 64 0 0 1 64 64v128a64 64 0 0 1-64 64h-128a64 64 0 0 1-64-64v-128zM64 0a64 64 0 0 1 64-64h128a64 64 0 0 1 64 64v128a64 64 0 0 1-64 64H128a64 64 0 0 1-64-64v-128z m320 0a64 64 0 0 1 64-64h128a64 64 0 0 1 64 64v128a64 64 0 0 1-64 64h-128a64 64 0 0 1-64-64v-128z m320 0a64 64 0 0 1 64-64h128a64 64 0 0 1 64 64v128a64 64 0 0 1-64 64h-128a64 64 0 0 1-64-64v-128z"  horiz-adv-x="1024" />

    
    <glyph glyph-name="icon_grid-2x2" unicode="&#59063;" d="M192 448h192a64 64 0 0 1 64 64V704a64 64 0 0 1-64 64H192a64 64 0 0 1-64-64v-192a64 64 0 0 1 64-64z m448 0h192a64 64 0 0 1 64 64V704a64 64 0 0 1-64 64h-192a64 64 0 0 1-64-64v-192a64 64 0 0 1 64-64zM128 64a64 64 0 0 1 64-64h192a64 64 0 0 1 64 64v192a64 64 0 0 1-64 64H192a64 64 0 0 1-64-64v-192z m448 0a64 64 0 0 1 64-64h192a64 64 0 0 1 64 64v192a64 64 0 0 1-64 64h-192a64 64 0 0 1-64-64v-192z"  horiz-adv-x="1024" />

    
    <glyph glyph-name="icon_hourglass" unicode="&#59064;" d="M832 555.136V832h31.552C881.472 832 896 846.336 896 864s-14.528 32-32.448 32H224.448C206.528 896 192 881.664 192 864s14.528-32 32.448-32H256v-276.864c0-18.24 7.808-35.648 21.44-47.808L415.808 384 277.44 260.672c-13.632-12.16-21.44-29.568-21.44-47.808V-64h-31.552C206.528-64 192-78.336 192-96s14.528-32 32.448-32h639.168c17.856 0 32.384 14.336 32.384 32s-14.528 32-32.448 32H832v276.864c0 18.24-7.808 35.648-21.44 47.808L672.192 384l138.368 123.328c13.632 12.16 21.44 29.568 21.44 47.808z m-64 0L576 384l192-171.136V-64H320v276.864L512 384l-192 171.136V832h448v-276.864z m-64 92.672V704H384v-56.192l160-142.592zM384 119.936V0h320v119.936L623.168 192h-158.336z"  horiz-adv-x="1024" />

    
    <glyph glyph-name="icon_globe-2" unicode="&#59065;" d="M544 832C278.912 832 64 617.088 64 352s214.912-480 480-480 480 214.912 480 480S809.088 832 544 832z m350.016-256h-95.36c-18.56 58.368-44.032 109.504-74.752 150.528A418.656 418.656 0 0 0 894.016 576zM576 576V762.752c60.48-17.856 119.424-84.928 155.712-186.752H576z m174.336-64c9.024-39.168 14.848-82.048 16.704-128H576v128h174.336zM512 762.752V576h-155.712C392.576 677.824 451.52 744.896 512 762.752zM512 512v-128h-191.04c1.856 45.952 7.68 88.832 16.704 128H512z m-255.04-128H129.6c3.456 44.992 13.76 88.128 30.464 128h112.64a766.72 766.72 0 0 1-15.744-128z m0-64a766.72 766.72 0 0 1 15.744-128h-112.64a412.64 412.64 0 0 0-30.464 128h127.36z m64 0H512v-128h-174.336a696.256 696.256 0 0 0-16.704 128zM512 128v-186.752c-60.48 17.856-119.424 84.928-155.712 186.752H512z m64-186.752V128h155.712c-36.288-101.824-95.232-168.896-155.712-186.752zM576 192v128h191.04a696.256 696.256 0 0 0-16.704-128H576z m255.04 128h127.36a412.64 412.64 0 0 0-30.464-128h-112.64a766.72 766.72 0 0 1 15.744 128z m0 64a766.72 766.72 0 0 1-15.744 128h112.64c16.704-39.872 27.008-83.008 30.464-128h-127.36zM364.096 726.528C333.44 685.504 307.904 634.368 289.344 576h-95.36a418.656 418.656 0 0 0 170.112 150.528zM193.984 128h95.36c18.56-58.368 44.032-109.504 74.752-150.528A418.656 418.656 0 0 0 193.984 128z m529.92-150.528c30.656 41.024 56.192 92.16 74.752 150.528h95.36a418.656 418.656 0 0 0-170.112-150.528z"  horiz-adv-x="1024" />

    
    <glyph glyph-name="icon_heart_alt" unicode="&#59066;" d="M1023.488 453.312C1020.8 610.368 893.376 750.336 736 750.336c-91.008 0-171.2-47.616-224-117.504-52.8 69.888-132.992 117.504-224 117.504-157.376 0-284.8-139.968-287.488-297.024H0c0-0.96 0.192-1.856 0.192-2.816 0-0.704-0.192-1.408-0.192-2.176 0-4.416 1.088-7.744 1.28-11.968C15.36 36.096 507.968-128 507.968-128s499.84 163.904 514.624 563.712c0.256 4.48 1.408 8 1.408 12.608 0 0.768-0.192 1.472-0.192 2.176 0 1.024 0.192 1.856 0.192 2.816h-0.512z m-64.832-15.232c-11.328-307.2-362.112-463.36-450.56-497.856-87.68 34.56-432.064 190.016-442.88 499.072a92.256 92.256 0 0 1-0.896 9.344l0.192 3.584C66.688 579.136 169.024 686.336 288 686.336c65.664 0 128.704-33.536 172.928-92.096a64 64 0 0 1 102.144 0C607.296 652.8 670.336 686.336 736 686.336c118.976 0 221.312-107.2 223.488-234.112 0-1.216 0.064-2.432 0.192-3.648a108.128 108.128 0 0 1-1.024-10.496z"  horiz-adv-x="1024" />

    
    <glyph glyph-name="icon_house" unicode="&#59067;" d="M52.99552 327.808L512.00352 725.632l459.008-397.824a32.032 32.032 0 0 1 41.984 48.384l-480 416a32 32 0 0 1-41.92 0L320.00352 643.968V704a64 64 0 0 1-128 0v-170.944L11.01152 376.192a32.096 32.096 0 0 1-3.2-45.184c11.648-13.312 31.808-14.784 45.184-3.2zM384.00352 192h256v-320h192a64 64 0 0 1 64 64v313.664c0 19.2-8.576 37.312-23.424 49.472l-320 262.336a63.872 63.872 0 0 1-81.152 0l-320-262.336A63.776 63.776 0 0 1 128.00352 249.664V-64a64 64 0 0 1 64-64h192V192z"  horiz-adv-x="1031" />

    
    <glyph glyph-name="icon_id_alt" unicode="&#59068;" d="M960 704H64a64 64 0 0 1-64-64v-576a64 64 0 0 1 64-64h896a64 64 0 0 1 64 64V640a64 64 0 0 1-64 64z m-90.688-384H480a32 32 0 0 0 0 64h389.312a32 32 0 0 0 0-64z m32-96a32 32 0 0 0-32-32H480a32 32 0 0 0 0 64h389.312a32 32 0 0 0 32-32z m-32 224H480a32 32 0 0 0 0 64h389.312a32 32 0 0 0 0-64zM257.536 390.464c69.824 0 126.464-75.904 126.464-169.6s-252.992-93.696-252.992 0 56.64 169.6 126.528 169.6z m-78.912 108.224a77.28 77.28 0 1 0 154.56 0 77.28 77.28 0 1 0-154.56 0z"  horiz-adv-x="1024" />

    
    <glyph glyph-name="icon_images" unicode="&#59069;" d="M960 704h-64V832a64 64 0 0 1-64 64H64a64 64 0 0 1-64-64v-704a64 64 0 0 1 64-64h64v-128a64 64 0 0 1 64-64h768a64 64 0 0 1 64 64V640a64 64 0 0 1-64 64zM64 128V832h768v-704H64z m896-192H192v128h64v-64h640V640h64v-704zM473.28 633.984a89.024 89.024 0 1 1 178.048 0 89.024 89.024 0 1 1-178.048 0zM320 576l-192-128v-256h640V512l-256-128z"  horiz-adv-x="1024" />

    
    <glyph glyph-name="icon_key" unicode="&#59070;" d="M992 896h-128c-7.744 0-15.232-2.816-21.12-7.936L401.152 500.8C378.304 505.6 342.976 512 320 512 143.552 512 0 368.448 0 192s143.552-320 320-320 320 143.552 320 320c0 52.416-9.984 87.552-21.312 116.736l108.928 36.992a32 32 0 0 1 21.696 31.04l-2.688 121.472 122.24 8.512a32 32 0 0 1 29.76 30.912l4.544 145.856 95.744 21.248A32 32 0 0 1 1024 736V864a32 32 0 0 1-32 32zM224 192a96.096 96.096 0 0 0 96-96 96.032 96.032 0 0 0-192 0c0 52.992 43.008 96 96 96z"  horiz-adv-x="1024" />

    
    <glyph glyph-name="icon_house_alt" unicode="&#59071;" d="M51.968 326.976L128 387.776V-64a64 64 0 0 1 64-64h192a64 64 0 0 1 64 64v256h128v-256a64 64 0 0 1 64-64h192a64 64 0 0 1 64 64V387.776l76.032-60.8a32 32 0 0 1 40 50.048l-480 384a32.032 32.032 0 0 1-40 0L320 623.424V704a64 64 0 0 1-128 0v-182.976l-179.968-144c-13.76-11.072-16-31.168-4.992-44.992a31.936 31.936 0 0 1 44.928-5.056zM512 695.04l320-256V-64h-192V256h-256v-320H192V438.976L512 695.04z"  horiz-adv-x="1032" />

    
    <glyph glyph-name="icon_image" unicode="&#59072;" d="M551.296 521.984a89.024 89.024 0 1 1 178.048 0 89.024 89.024 0 1 1-178.048 0zM832 0h64V384l-256-192-320 256-192-192v-256h64z m128 768H64a64 64 0 0 1-64-64v-768a64 64 0 0 1 64-64h896a64 64 0 0 1 64 64V704a64 64 0 0 1-64 64z m0-832H64V704h896v-768z"  horiz-adv-x="1024" />

    
    <glyph glyph-name="icon_id-2" unicode="&#59073;" d="M960 704H640v-128a64 64 0 0 0-64-64h32c52.992 0 96 43.008 96 96 0 12.16-0.192 22.72-0.576 32H960v-704H64V640h256.576c-0.384-9.28-0.576-19.84-0.576-32 0-52.992 43.008-96 96-96h32a64 64 0 0 0-64 64V704H64a64 64 0 0 1-64-64v-704a64 64 0 0 1 64-64h896a64 64 0 0 1 64 64V640a64 64 0 0 1-64 64z m-90.688-448H480a32 32 0 0 1 0-64h389.312a32 32 0 0 1 0 64z m0-128H480a32 32 0 0 1 0-64h389.312a32 32 0 0 1 0 64zM480 320h389.312a32 32 0 0 1 0 64H480a32 32 0 0 1 0-64z m-301.44 50.688a77.312 77.312 0 1 1 154.624 0 77.312 77.312 0 1 1-154.624 0z m78.976-108.224c-69.888 0-126.464-75.904-126.464-169.6s252.928-93.632 252.928 0-56.64 169.6-126.464 169.6zM384 576a64 64 0 0 1 64-64h128a64 64 0 0 1 64 64V832a64 64 0 0 1-64 64h-128a64 64 0 0 1-64-64v-256z m192 0h-128V832h128v-256z"  horiz-adv-x="1024" />

    
    <glyph glyph-name="icon_info" unicode="&#59074;" d="M512 896C229.248 896 0 666.752 0 384s229.248-512 512-512 512 229.248 512 512S794.752 896 512 896z m-64-448a64 64 0 0 0 128 0v-320a64 64 0 0 0-128 0V448z m64 126.976a64 64 0 1 0 0.032 128.032A64 64 0 0 0 512 574.976z"  horiz-adv-x="1024" />

    
    <glyph glyph-name="icon_info_alt" unicode="&#59075;" d="M512 896C229.248 896 0 666.752 0 384s229.248-512 512-512 512 229.248 512 512S794.752 896 512 896z m0-960C264.96-64 64 136.96 64 384S264.96 832 512 832s448-200.96 448-448-200.96-448-448-448z m0 576a64 64 0 0 1-64-64v-320a64 64 0 0 1 128 0V448a64 64 0 0 1-64 64z m-64 126.976a64 64 0 1 1 128 0 64 64 0 1 1-128 0z"  horiz-adv-x="1024" />

    
    <glyph glyph-name="icon_key_alt" unicode="&#59076;" d="M352 96c0 19.008-4.096 37.376-12.16 54.464A128.544 128.544 0 0 1 224 224c-70.592 0-128-57.408-128-128 0-12.608 2.368-24.512 5.76-36.032a255.936 255.936 0 0 1 86.208-86.208c11.52-3.392 23.424-5.76 36.032-5.76 70.592 0 128 57.408 128 128z m-128 64c24.704 0 47.424-14.464 57.984-36.8A64.096 64.096 0 0 0 224 32c-35.264 0-64 28.736-64 64s28.736 64 64 64zM992 896h-138.496c-7.552 0-14.848-2.688-20.672-7.552l-453.12-382.656A303.488 303.488 0 0 1 320 512C143.552 512 0 368.448 0 192s143.552-320 320-320 320 143.552 320 320a316.16 316.16 0 0 1-16 99.2l97.408 63.296a32 32 0 0 1 14.592 26.816V497.6l121.664 6.4a31.968 31.968 0 0 1 30.144 28.992l11.648 123.264 106.304 50.816c11.2 5.376 18.24 16.64 18.24 28.928V864a32 32 0 0 1-32 32z m-32-139.84l-104.448-49.92a32 32 0 0 1-18.048-25.856l-10.752-113.856-124.416-6.528c-17.024-0.96-30.336-14.976-30.336-32v-129.28l-104.448-67.904a32 32 0 0 1-12.032-39.296A253.024 253.024 0 0 0 576 192c0-141.184-114.816-256-256-256-48.448 0-93.312 14.272-132.032 37.76a255.936 255.936 0 0 0-86.208 86.208C78.272 98.688 64 143.552 64 192c0 141.184 114.816 256 256 256 18.88 0 38.72-2.624 60.672-7.936 9.92-2.432 20.416 0 28.224 6.656L865.216 832H960v-75.84z"  horiz-adv-x="1024" />

    
    <glyph glyph-name="icon_id" unicode="&#59077;" d="M960 704H64a64 64 0 0 1-64-64v-576a64 64 0 0 1 64-64h896a64 64 0 0 1 64 64V640a64 64 0 0 1-64 64zM64 640h896v-576H64V640z m805.312-256H480a32 32 0 0 1 0-64h389.312a32 32 0 0 1 0 64z m0-128H480a32 32 0 0 1 0-64h389.312a32 32 0 0 1 0 64z m0 256H480a32 32 0 0 1 0-64h389.312a32 32 0 0 1 0 64z m-690.752-13.312a77.312 77.312 0 1 1 154.624 0 77.312 77.312 0 1 1-154.624 0z m78.976-108.224c-69.888 0-126.464-75.904-126.464-169.6s252.928-93.632 252.928 0-56.64 169.6-126.464 169.6z"  horiz-adv-x="1024" />

    
    <glyph glyph-name="icon_id-2_alt" unicode="&#59078;" d="M960 704H640v-64a64 64 0 0 0 0-128h-256a64 64 0 0 0 0 128V704H64a64 64 0 0 1-64-64v-704a64 64 0 0 1 64-64h896a64 64 0 0 1 64 64V640a64 64 0 0 1-64 64zM480 384h389.312a32 32 0 0 0 0-64H480a32 32 0 0 0 0 64z m0-128h389.312a32 32 0 0 0 0-64H480a32 32 0 0 0 0 64z m0-128h389.312a32 32 0 0 0 0-64H480a32 32 0 0 0 0 64z m-96-35.136c0-93.696-252.992-93.696-252.992 0s56.64 169.6 126.464 169.6c69.888 0 126.528-75.904 126.528-169.6z m-50.816 277.824a77.312 77.312 0 1 0-154.656 0 77.312 77.312 0 0 0 154.656 0zM448 832h128v-256h-128z"  horiz-adv-x="1024" />

    
    <glyph glyph-name="icon_laptop" unicode="&#59079;" d="M990.976 128H960V704a64 64 0 0 1-64 64H128a64 64 0 0 1-64-64v-576h-30.976C14.784 128 0 113.664 0 96s14.784-32 33.024-32h957.952c18.24 0 33.024 14.336 33.024 32s-14.784 32-33.024 32zM896 704v-509.312H128V704h768z"  horiz-adv-x="1024" />

    
    <glyph glyph-name="icon_lifesaver" unicode="&#59080;" d="M511.99984 895.99968C380.991881 895.99968 249.919922 846.015696 149.951953 746.047727c-199.935938-199.935938-199.935938-524.159836 0-724.095774C249.919922-78.016016 380.991881-128 511.99984-128s262.079918 49.983984 362.047887 149.951953c199.935938 199.935938 199.935938 524.159836 0 724.095774A510.46384 510.46384 0 0 1 511.99984 895.99968z m-180.991943-692.991783A254.143921 254.143921 0 0 0 255.99992 383.99984c0 68.351979 26.623992 132.671959 75.007977 180.991943C379.327881 613.375768 443.647861 639.99976 511.99984 639.99976s132.671959-26.623992 180.991943-75.007977A254.143921 254.143921 0 0 0 767.99976 383.99984a254.143921 254.143921 0 0 0-75.007977-180.991943C644.671799 154.623912 580.351819 127.99992 511.99984 127.99992s-132.671959 26.623992-180.991943 75.007977zM709.951778 785.599715L611.199809 686.847745C578.943819 697.407742 545.59983 703.99974 511.99984 703.99974c-30.59199 0-60.863981-5.823998-90.495972-14.527995l-99.839969 99.839968a445.439861 445.439861 0 0 0 388.287879-3.711998z m-603.199811-211.327934l99.839968-99.839969c-18.303994-62.079981-17.535995-127.99996 2.56-189.695941L110.399966 185.983902A445.919861 445.919861 0 0 0 63.99998 383.99984c0 66.943979 15.103995 131.455959 42.751987 190.271941zM195.199939 67.263939c0-0.064 0-0.064 0 0z m134.207958-92.159971l100.863969 100.863968c26.815992-7.103998 54.143983-11.967996 81.727974-11.967996 30.59199 0 60.863981 5.823998 90.495972 14.591995l99.839969-99.839968A446.71986 446.71986 0 0 0 511.99984-64.00002c-64.06398 0-125.823961 13.759996-182.591943 39.103988z m587.711816 218.751931l-99.647968 99.647969a319.3279 319.3279 0 0 1 2.559999 172.223946l100.671968 100.671969a449.727859 449.727859 0 0 0-3.583999-372.543884z"  horiz-adv-x="1123" />

    
    <glyph glyph-name="icon_lightbulb" unicode="&#59081;" d="M868.918173 380.039907c4.53493 12.135729 8.303393 24.654691 11.560878 37.237526 0.57485 2.171657 1.277445 4.215569 1.788424 6.387226 2.874252 11.816368 4.918164 23.888224 6.642714 36.023953 0.383234 2.810379 1.085828 5.620759 1.40519 8.431137 1.724551 14.754491 2.682635 29.636727 2.682635 44.646708 0 211.289427-171.944116 383.233543-383.233543 383.233543s-383.233543-171.944116-383.233543-383.233543c0-15.00998 0.958084-29.892216 2.746507-44.582835 0.319361-2.874252 0.958084-5.620759 1.341318-8.431138 1.724551-12.135729 3.768463-24.207585 6.642714-36.023953 0.510978-2.171657 1.213573-4.279441 1.788424-6.387226 3.257485-12.582835 7.025948-25.101797 11.560878-37.237526 0.447106-1.149701 0.958084-2.299401 1.341318-3.449102 5.045908-13.093813 10.666667-25.932136 17.117764-38.387226l0.766468-1.40519c6.706587-12.902196 14.115769-25.421158 22.291417-37.556887 0.255489-0.383234 0.510978-0.702595 0.702595-1.085828 7.984032-11.816368 16.670659-23.121757 25.932137-34.043914l2.235529-2.618762c8.431138-9.772455 17.564871-19.033933 27.017964-27.976049 2.107784-1.98004 4.087824-3.96008 6.259481-5.876247 2.810379-2.491018 5.301397-5.301397 8.239522-7.728543 1.724551-1.469062 3.832335-2.427146 5.748503-3.640719 6.323353-5.237525 12.327346-10.730539 19.033932-15.584831 2.682635-1.916168 4.343313-3.768463 6.642715-5.684631 44.071857-36.598803 22.546907-65.532936 71.6008-65.532936h288.447114c48.990021 0 27.528943 28.934132 71.664672 65.532936 2.299401 1.916168 3.96008 3.704591 6.642715 5.684631 6.706587 4.854292 12.710579 10.347306 19.033932 15.584831 1.852295 1.277445 3.96008 2.171657 5.748504 3.640719 2.874252 2.427146 5.429142 5.237525 8.239521 7.728543 2.107784 1.916168 4.151697 3.96008 6.259481 5.876247 9.453094 8.942116 18.522955 18.203593 27.017965 27.976049l2.235529 2.618762c9.261477 10.922156 17.948104 22.227545 25.932136 34.043914 0.255489 0.383234 0.510978 0.702595 0.702595 1.085828 8.111777 12.071857 15.520958 24.590819 22.227545 37.493015l0.766468 1.405189c6.451098 12.45509 12.071857 25.293414 17.117764 38.387227 0.383234 1.213573 0.894212 2.299401 1.341318 3.449102zM735.5529 509.764461a31.936129 31.936129 0 0 0-31.936129 31.936129C703.616771 639.04191 615.792418 704.383229 543.936129 704.383229a31.936129 31.936129 0 0 0 0 63.872257c109.79641 0 223.5529-80.862278 223.5529-226.554896a31.936129 31.936129 0 0 0-31.936129-31.936129zM505.868263-62.083857h-140.327349l115.16168-58.890221a63.904193 63.904193 0 0 1 57.868265-0.191617L655.393217-62.083857h-149.524954zM703.616771 33.724529a31.936129 31.936129 0 0 1-31.936128 31.936128H352.319357a31.936129 31.936129 0 0 1 0-63.872257h319.361286a31.936129 31.936129 0 0 1 31.936128 31.936129z"  horiz-adv-x="1024" />

    
    <glyph glyph-name="icon_lightbulb_alt" unicode="&#59082;" d="M512 896C300.697401 896 128.742565 724.045164 128.742565 512.742565c0-123.536647 60.043665-240.17466 160.712617-312.035429 1.53303-1.085896 3.129936-2.107916 4.726842-3.06606 23.378704-13.733391 25.678248-57.999625 25.167238-66.111907a84.699893 84.699893 0 0 1-0.127752-3.960327V1.732651c0-24.017466 13.41401-45.927016 34.81255-56.849853l128.902251-65.856403a63.908177 63.908177 0 0 1 57.871873-0.191629l130.43528 65.856403A63.812363 63.812363 0 0 1 706.31152 1.732651v125.069676c0 63.045848 38.517372 83.869502 38.900629 84.061131 5.110099 2.363421 9.836941 5.42948 14.116649 9.070426A382.84224 382.84224 0 0 1 895.257435 512.742565c0 211.302599-171.954836 383.257435-383.257435 383.257435z m-128.902251-768.495034s0 1.277525 0.063876 1.980163h259.465284c0-0.958144-0.255505-1.660782-0.255505-2.682802V65.60889h-259.273655v61.896076z m128.902251-191.628718L383.161625 1.732651h259.273656L512-64.123752z m206.064748 332.859083s-42.79708-20.121015-64.003992-75.373963h-281.183205c-7.920654 22.101179-21.654045 44.84112-46.310274 59.341027A318.934063 318.934063 0 0 0 192.618804 512.742565C192.618804 689.104861 335.637703 832.123761 512 832.123761s319.381196-143.0189 319.381196-319.381196a318.646619 318.646619 0 0 0-113.316448-244.007234zM543.93812 768.247522a31.93812 31.93812 0 0 1 0-63.87624c71.860769 0 159.690598-65.345393 159.690598-162.692781a31.93812 31.93812 0 0 1 63.876239 0C767.504957 687.380203 653.741375 768.247522 543.93812 768.247522z"  horiz-adv-x="1024" />

    
    <glyph glyph-name="icon_like_alt" unicode="&#59083;" d="M867.2 576h-289.984V750.784c4.736 78.72-17.92 145.152-66.304 145.088-84.224-0.128-81.856-68.032-81.856-68.032C414.08 586.88 192 512 192 512v-512l29.504-3.968C463.616-3.968 318.336-128 716.16-128 1018.24-128 1024 137.856 1024 320s-83.008 256-156.8 256zM64-64a64 64 0 0 1 64 64V510.016a64 64 0 0 1-128 0V0a64 64 0 0 1 64-64z"  horiz-adv-x="1024" />

    
    <glyph glyph-name="icon_link" unicode="&#59084;" d="M253.503803 415.095198a149.633232 149.633232 0 0 1 148.443972-37.080499L113.842054 666.059433c-9.3921 9.3921-14.332101 22.992349-14.332101 39.215067 0 26.834572 14.027163 61.109639 32.6284 79.710876 24.395065 24.395065 90.56668 51.4126 121.36545 20.796793l288.044734-288.105721c4.208149 14.08815 6.342717 28.725189 6.342717 43.362228a147.712121 147.712121 0 0 1-43.423217 105.081744L309.124552 861.402918C250.45442 920.07305 133.846007 898.056504 76.456616 840.667113 43.157352 807.367849 22.482534 755.772285 22.482534 706.006352c0-38.666179 12.685434-72.636307 35.677783-95.628656L253.503803 415.095198z m515.955632-14.027163a149.633232 149.633232 0 0 1-148.443973 37.0805l288.105722-288.105722c9.3921-9.3921 14.332101-22.931361 14.332101-39.215067 0-26.834572-14.027163-61.109639-32.6284-79.710876-24.395065-24.395065-90.56668-51.4126-121.36545-20.796794l-288.044734 288.16671a151.676319 151.676319 0 0 1-6.342717-43.362229c0-39.763957 15.429879-77.027419 43.423216-105.081744l195.282498-195.282498c58.670132-58.670132 175.278544-36.653586 232.667936 20.735806 33.299264 33.299264 53.974082 84.894827 53.974082 134.66076 0 38.666179-12.685434 72.636307-35.677783 95.628656L769.459435 401.068035zM303.025785 616.598438c-7.806421-7.745433-12.075557-18.113336-12.075557-29.091116s4.269136-21.284695 12.01457-29.030128l358.851411-358.912398c16.039755-15.978768 42.081488-15.978768 58.121243 0 7.806421 7.745433 12.01457 18.113336 12.01457 29.091115s-4.269136 21.284695-12.01457 29.030128L361.086041 616.598438a41.166673 41.166673 0 0 1-58.060256 0z"  horiz-adv-x="1024" />

    
    <glyph glyph-name="icon_like" unicode="&#59085;" d="M867.2 576H576V742.016c2.304 89.856-17.984 153.856-94.016 153.856C400 895.872 384 827.84 384 827.84 369.024 586.88 128 512 128 512v-512l93.504-3.968C463.616-3.968 318.336-128 716.16-128 1018.24-128 1024 137.856 1024 320s-83.008 256-156.8 256z m-151.04-640c-202.112 0-244.928 32.192-282.752 60.608-47.808 35.904-93.696 63.36-208.768 63.36h-0.384L192 61.312v407.68C271.808 506.24 430.4 606.08 447.296 815.68c2.496 5.12 10.752 16.192 34.688 16.192 5.696 0 13.056-0.64 16.192-3.84 2.624-2.624 15.488-19.264 13.824-86.016V512h355.2c46.144 0 92.8-65.92 92.8-192 0-249.024-38.848-384-243.84-384zM32-64a32 32 0 0 1 32 32V541.312a32 32 0 0 1-64 0V-32a32 32 0 0 1 32-32z"  horiz-adv-x="1024" />

    
    <glyph glyph-name="icon_menu" unicode="&#59086;" d="M224 384h576a32 32 0 0 1 0 64H224a32 32 0 0 1 0-64z m0 192h576a32 32 0 0 1 0 64H224a32 32 0 0 1 0-64z m0-384h576a32 32 0 0 1 0 64H224a32 32 0 0 1 0-64z"  horiz-adv-x="1024" />

    
    <glyph glyph-name="icon_mail" unicode="&#59087;" d="M960 640H64a64 64 0 0 1-64-64v-107.456l512-204.8 512 204.8V576a64 64 0 0 1-64 64zM0 364.032V-64a64 64 0 0 1 64-64h896a64 64 0 0 1 64 64V364.032l-512-204.8-512 204.8z"  horiz-adv-x="1024" />

    
    <glyph glyph-name="icon_map" unicode="&#59088;" d="M322.688 710.272L64 832v-768l258.688-121.728z m64-767.104l254.656 114.752v768l-254.656-114.752z m318.656 113.408L960-64V704l-254.656 120.576z"  horiz-adv-x="1024" />

    
    <glyph glyph-name="icon_lock-open_alt" unicode="&#59089;" d="M960-64V448a64 64 0 0 1-64 64H255.68l0.32 27.136C256 711.552 362.496 832 515.072 832c111.68 0 211.2-64.192 259.776-167.552 7.488-16 26.496-22.848 42.56-15.296 16 7.488 22.848 26.56 15.296 42.56C773.504 817.664 651.84 896 515.072 896 327.872 896 192 745.92 192 539.52l-0.32-27.52H128a64 64 0 0 1-64-64v-512a64 64 0 0 1 64-64h768a64 64 0 0 1 64 64zM128 448h768v-512H128V448z m384-128c-70.72 0-128-57.28-128-128s57.28-128 128-128 128 57.28 128 128-57.28 128-128 128z m0-192c-35.264 0-64 28.736-64 64s28.736 64 64 64 64-28.736 64-64-28.736-64-64-64z"  horiz-adv-x="1024" />

    
    <glyph glyph-name="icon_menu-circle_alt" unicode="&#59090;" d="M544 832C278.912 832 64 617.088 64 352s214.912-480 480-480 480 214.912 480 480S809.088 832 544 832z m256-704H288a32 32 0 0 0 0 64h512a32 32 0 0 0 0-64z m0 192H288a32 32 0 0 0 0 64h512a32 32 0 0 0 0-64z m0 192H288a32 32 0 0 0 0 64h512a32 32 0 0 0 0-64z"  horiz-adv-x="1024" />

    
    <glyph glyph-name="icon_mail_alt" unicode="&#59091;" d="M960 640H64a64 64 0 0 1-64-64v-640a64 64 0 0 1 64-64h896a64 64 0 0 1 64 64V576a64 64 0 0 1-64 64zM363.52 190.272l148.608-100.992 147.712 101.696L914.752-64H109.248l254.272 254.272zM64-18.752V393.92l245.632-166.976L64-18.752z m649.408 246.592L960 397.568v-416.32l-246.592 246.592zM960 576v-103.552l-1.344 1.92-446.784-307.648L64 471.232V576h896z"  horiz-adv-x="1024" />

    
    <glyph glyph-name="icon_loading" unicode="&#59092;" d="M864.64 165.76a5.824 5.824 0 1 1 11.648 0 5.824 5.824 0 1 1-11.648 0z m-128.576-132.672a11.584 11.584 0 1 1 23.168 0 11.584 11.584 0 1 1-23.168 0zM562.752-35.2a17.408 17.408 0 1 1 34.816 0 17.408 17.408 0 1 1-34.816 0z m-186.56 9.152a23.168 23.168 0 1 1 46.336 0 23.168 23.168 0 1 1-46.336 0zM210.688 58.88a28.992 28.992 0 1 1 57.984 0 28.992 28.992 0 1 1-57.984 0z m-114.624 144.384a34.816 34.816 0 1 1 69.632 0 34.816 34.816 0 1 1-69.632 0z m-43.008 177.28a40.576 40.576 0 1 1 81.152 0 40.576 40.576 0 1 1-81.152 0z m35.392 176.128a46.4 46.4 0 1 1 92.8 0 46.4 46.4 0 1 1-92.8 0z m106.176 142.016a52.224 52.224 0 1 1 104.448 0 52.224 52.224 0 1 1-104.448 0z m155.904 81.344a57.984 57.984 0 1 1 115.968 0 57.984 57.984 0 1 1-115.968 0z m175.104 5.056a63.808 63.808 0 1 1 127.616 0 63.808 63.808 0 1 1-127.616 0z m160.32-72.128a69.568 69.568 0 1 1 139.136 0 69.568 69.568 0 1 1-139.136 0z m113.92-135.488a75.392 75.392 0 1 1 150.784 0 75.392 75.392 0 1 1-150.784 0z m45.312-175.488a81.216 81.216 0 1 1 162.432 0 81.216 81.216 0 1 1-162.432 0z"  horiz-adv-x="1024" />

    
    <glyph glyph-name="icon_lock-open" unicode="&#59093;" d="M832 512H251.072v59.072A197.12 197.12 0 0 0 448 768c71.552 0 133.824-38.656 168.256-95.936 0.32 0.384 0.896 0.576 1.28 0.96 11.584-16.512 29.824-28.032 51.52-28.032a64 64 0 0 1 59.072 88.448l-0.704 1.408a62.24 62.24 0 0 1-11.52 17.088C657.664 838.4 560.128 896 448 896 268.544 896 123.072 750.528 123.072 571.072V512H64a64 64 0 0 1-64-64v-512a64 64 0 0 1 64-64h768a64 64 0 0 1 64 64V448a64 64 0 0 1-64 64zM448 64c-70.72 0-128 57.28-128 128s57.28 128 128 128 128-57.28 128-128-57.28-128-128-128z"  horiz-adv-x="1024" />

    
    <glyph glyph-name="icon_link_alt" unicode="&#59094;" d="M310.981972 769.435405a93.675275 93.675275 0 0 0 132.368593 0l334.697201-334.697202c16.475864 62.346169 1.060946 131.370056-47.80497 180.235972l-220.676731 220.614322a187.225733 187.225733 0 0 1-264.799594 0l-49.614819-49.614819a187.225733 187.225733 0 0 1 0-264.799595l220.67673-220.67673c48.865916-48.865916 117.889803-64.280835 180.235972-47.804971L261.367152 587.389584a93.675275 93.675275 0 0 0 0 132.368593l49.61482 49.677228z m203.451963-811.561143a187.225733 187.225733 0 0 1 264.799594 0l49.614819 49.677228a187.225733 187.225733 0 0 1 0 264.799594l-220.67673 220.551913c-48.865916 48.865916-117.889803 64.280835-180.235972 47.804971l334.697202-334.697202a93.675275 93.675275 0 0 0 0-132.368593l-49.677228-49.677228a93.675275 93.675275 0 0 0-132.368593 0L245.952234 358.724556c-16.475864-62.346169-1.060946-131.370056 47.80497-180.235972l220.676731-220.614322z"  horiz-adv-x="1024" />

    
    <glyph glyph-name="icon_lock" unicode="&#59095;" d="M512 896C332.544 896 187.072 750.528 187.072 571.072V512H128a64 64 0 0 1-64-64v-512a64 64 0 0 1 64-64h768a64 64 0 0 1 64 64V448a64 64 0 0 1-64 64h-59.072v59.072C836.928 750.528 691.456 896 512 896zM315.072 571.072C315.072 679.68 403.392 768 512 768s196.928-88.32 196.928-196.928V512H315.072v59.072zM512 64c-70.72 0-128 57.28-128 128s57.28 128 128 128 128-57.28 128-128-57.28-128-128-128z"  horiz-adv-x="1024" />

    
    <glyph glyph-name="icon_lock_alt" unicode="&#59096;" d="M512 896C335.296 896 192 750.528 192 571.072V512H128a64 64 0 0 1-64-64v-512a64 64 0 0 1 64-64h768a64 64 0 0 1 64 64V448a64 64 0 0 1-64 64h-64v59.072C832 750.528 688.704 896 512 896zM256 571.072C256 714.944 370.816 832 512 832s256-117.056 256-260.928V512H256v59.072zM896-64H128V448h768v-512z m-256 256c0 70.72-57.28 128-128 128s-128-57.28-128-128 57.28-128 128-128 128 57.28 128 128z m-128-64c-35.264 0-64 28.736-64 64s28.736 64 64 64 64-28.736 64-64-28.736-64-64-64z"  horiz-adv-x="1024" />

    
    <glyph glyph-name="icon_menu-circle_alt2" unicode="&#59097;" d="M544 832C278.912 832 64 617.088 64 352s214.912-480 480-480 480 214.912 480 480S809.088 832 544 832z m0-896C314.624-64 128 122.624 128 352S314.624 768 544 768s416-186.624 416-416-186.624-416-416-416z m256 448H288a32 32 0 0 1 0-64h512a32 32 0 0 1 0 64z m0 192H288a32 32 0 0 1 0-64h512a32 32 0 0 1 0 64z m0-384H288a32 32 0 0 1 0-64h512a32 32 0 0 1 0 64z"  horiz-adv-x="1024" />

    
    <glyph glyph-name="icon_map_alt" unicode="&#59098;" d="M973.867305 766.448833l-287.99388 127.99728a63.262656 63.262656 0 0 1-26.36744 0.319993l-308.089453-125.373336L77.950344 894.446113A63.806644 63.806644 0 0 1 23.99949 881.90238C8.831812 869.806637 0 851.439027 0 831.98344v-767.98368a63.99864 63.99864 0 0 1 50.046937-62.462673l286.649908-127.99728a64.254635 64.254635 0 0 1 26.431439-0.319993l308.089453 125.373336 274.81016-125.053343A63.99864 63.99864 0 0 1 1023.97824-63.99752V703.98616c0 30.015362-20.863557 55.99881-50.110935 62.462673zM383.99184 717.233879L639.9864 819.183712v-767.98368l-255.99456-101.949834v767.983681zM63.99864 831.98344l255.99456-114.301571v-767.98368L63.99864 63.99976V831.98344z m895.98096-895.98096l-255.99456 113.789582v767.98368L959.9796 703.98616v-767.98368z"  horiz-adv-x="1024" />

    
    <glyph glyph-name="icon_minus_alt" unicode="&#59099;" d="M544 832C278.912 832 64 617.088 64 352s214.912-480 480-480 480 214.912 480 480S809.088 832 544 832z m256-512H288a32 32 0 0 0 0 64h512a32 32 0 0 0 0-64z"  horiz-adv-x="1024" />

    
    <glyph glyph-name="icon_menu-square_alt" unicode="&#59100;" d="M960 832H128a64 64 0 0 1-64-64v-832a64 64 0 0 1 64-64h832a64 64 0 0 1 64 64V768a64 64 0 0 1-64 64z m-160-704H288a32 32 0 0 0 0 64h512a32 32 0 0 0 0-64z m0 192H288a32 32 0 0 0 0 64h512a32 32 0 0 0 0-64z m0 192H288a32 32 0 0 0 0 64h512a32 32 0 0 0 0-64z"  horiz-adv-x="1024" />

    
    <glyph glyph-name="icon_minus_alt2" unicode="&#59101;" d="M544 832C278.912 832 64 617.088 64 352s214.912-480 480-480 480 214.912 480 480S809.088 832 544 832z m0-896C314.624-64 128 122.624 128 352S314.624 768 544 768s416-186.624 416-416-186.624-416-416-416z m256 448H288a32 32 0 0 1 0-64h512a32 32 0 0 1 0 64z"  horiz-adv-x="1024" />

    
    <glyph glyph-name="icon_mic_alt" unicode="&#59102;" d="M448 70.144V-64h-96a32 32 0 0 1 0-64h320a32 32 0 0 1 0 64h-96v134.528c133.312 26.304 256 134.208 256 313.472v96a32 32 0 0 1-64 0v-96c0-168.064-128.832-256-256-256-123.328 0-256 80.128-256 256v96a32 32 0 0 1-64 0v-96c0-181.76 120.512-288.384 256-313.856zM512 192c105.856 0 192 86.144 192 192V704c0 105.856-86.144 192-192 192s-192-86.144-192-192v-320c0-105.856 86.144-192 192-192zM384 704c0 70.72 57.28 128 128 128s128-57.28 128-128v-320c0-70.72-57.28-128-128-128s-128 57.28-128 128V704z"  horiz-adv-x="1024" />

    
    <glyph glyph-name="icon_mic" unicode="&#59103;" d="M448 70.144V-64h-96a32 32 0 0 1 0-64h320a32 32 0 0 1 0 64h-96v134.528c133.312 26.304 256 134.208 256 313.472v96a32 32 0 0 1-64 0v-96c0-168.064-128.832-256-256-256-123.328 0-256 80.128-256 256v96a32 32 0 0 1-64 0v-96c0-181.76 120.512-288.384 256-313.856zM512 256c70.72 0 128 57.28 128 128V768c0 70.72-57.28 128-128 128s-128-57.28-128-128v-384c0-70.72 57.28-128 128-128z"  horiz-adv-x="1024" />

    
    <glyph glyph-name="icon_minus-box" unicode="&#59104;" d="M256 576v-448a64 64 0 0 1 64-64h448a64 64 0 0 1 64 64V576a64 64 0 0 1-64 64H320a64 64 0 0 1-64-64z m512-448H320V576h448v-448z m-352 192h256a32 32 0 0 1 0 64h-256a32 32 0 0 1 0-64z"  horiz-adv-x="1024" />

    
    <glyph glyph-name="icon_mobile" unicode="&#59105;" d="M768-128a64 64 0 0 1 64 64V832a64 64 0 0 1-64 64H320a64 64 0 0 1-64-64v-896a64 64 0 0 1 64-64h448z m-256 99.968a35.968 35.968 0 1 0 71.904 0 35.968 35.968 0 0 0-71.904 0zM672 832a32 32 0 0 0 0-64h-64a32 32 0 0 0 0 64h64z m-160-32a32 32 0 1 0-64 0 32 32 0 0 0 64 0z m-192-96h448v-640H320V704z"  horiz-adv-x="1024" />

    
    <glyph glyph-name="icon_menu-square_alt2" unicode="&#59106;" d="M960 832H128a64 64 0 0 1-64-64v-832a64 64 0 0 1 64-64h832a64 64 0 0 1 64 64V768a64 64 0 0 1-64 64z m0-896H128V768h832v-832zM288 320h512a32 32 0 0 1 0 64H288a32 32 0 0 1 0-64z m0 192h512a32 32 0 0 1 0 64H288a32 32 0 0 1 0-64z m0-384h512a32 32 0 0 1 0 64H288a32 32 0 0 1 0-64z"  horiz-adv-x="1024" />

    
    <glyph glyph-name="icon_minus-06" unicode="&#59107;" d="M288 320h512a32 32 0 0 1 0 64H288a32 32 0 0 1 0-64z"  horiz-adv-x="1024" />

    
    <glyph glyph-name="icon_mug_alt" unicode="&#59108;" d="M828.48 575.872c1.792 26.752 2.88 48.448 3.456 61.44A63.936 63.936 0 0 1 768 704H64A64.064 64.064 0 0 1 0.064 637.312c3.52-84.544 27.328-511.872 149.248-620.992A64 64 0 0 1 192 0h448a64 64 0 0 1 42.688 16.32c38.208 34.24 66.816 99.712 88.128 176.128l56.128 0.192c108.864 0 197.12 79.36 197.12 191.68-0.064 152.512-131.904 190.976-195.584 191.552z m-1.6-287.232l-20.288-0.064c-3.84 0-8.704 0-13.44-0.064 12.736 65.6 21.44 132.864 27.328 191.488h6.4c16.896 0 101.12-4.608 101.12-95.68 0-65.728-52.416-95.68-101.12-95.68z"  horiz-adv-x="1024" />

    
    <glyph glyph-name="icon_pause_alt" unicode="&#59109;" d="M512 896C229.248 896 0 666.752 0 384s229.248-512 512-512 512 229.248 512 512S794.752 896 512 896z m-64-640a64 64 0 0 0-128 0v256a64 64 0 0 0 128 0v-256z m256 0a64 64 0 0 0-128 0v256a64 64 0 0 0 128 0v-256z"  horiz-adv-x="1024" />

    
    <glyph glyph-name="icon_pencil_alt" unicode="&#59110;" d="M960 896H64a64 64 0 0 1-64-64v-896a64 64 0 0 1 64-64h896a64 64 0 0 1 64 64V832a64 64 0 0 1-64 64zM178.368 602.496a81.376 81.376 0 1 0 115.136 115.136l84.736-84.736-115.136-115.136-84.736 84.736zM659.84 121.024l-328.96 328.96 115.136 115.136 328.96-328.96L832 64l-172.16 57.024z"  horiz-adv-x="1024" />

    
    <glyph glyph-name="icon_paperclip" unicode="&#59111;" d="M436.729587 679.496799c-65.714213 65.590107-148.244812 71.112831-205.643912 13.713731-57.3991-57.337047-51.938429-139.991752 13.651678-205.643912l355.191838-355.191838a31.026541 31.026541 0 0 1 43.871529 43.871528L288.608882 531.438147c-31.833231 31.833231-52.124588 79.489997-13.713731 117.900854 38.348804 38.410857 86.067624 18.057447 117.900854-13.775784L787.701816 240.71946c113.246874-113.37098 141.481026-165.619674 74.029326-233.133427-68.25839-68.196336-140.612283-51.317898-249.577494 57.58526L173.438363 504.010685C102.573744 574.875304 52.931278 690.6043 146.072954 783.683923c110.578591 110.578591 236.856612 1.861592 272.847399-34.191248l403.096817-403.15887a31.026541 31.026541 0 0 1 43.871528 43.871528L462.791881 793.364203C340.919629 915.236455 202.727417 928.267602 102.139372 827.555451 0.496425 725.974557 11.47982 578.288223 129.566834 460.139156L568.344173 21.361817c37.293902-37.293902 117.156218-117.094165 208.994778-117.094164 41.265299 0 85.012722 16.195854 128.325773 59.508905 123.299473 123.361526 9.245909 237.539196-74.029327 320.876484L436.729587 679.496799z"  horiz-adv-x="1028" />

    
    <glyph glyph-name="icon_pause" unicode="&#59112;" d="M384 576a64 64 0 0 1-64-64v-256a64 64 0 0 1 128 0v256a64 64 0 0 1-64 64z m192-320a64 64 0 0 1 128 0v256a64 64 0 0 1-128 0v-256z"  horiz-adv-x="1024" />

    
    <glyph glyph-name="icon_music" unicode="&#59113;" d="M36.968164-55.692011c46.747152-60.683802 143.303768-64.621062 215.674358-8.874459a185.61369 185.61369 0 0 1 61.121276 82.369981c6.499604 12.874216 10.749345 31.123104 10.749345 51.996832V536.834385l562.465727 106.306022v-246.609973c0-86.994699-66.558444-106.993481-90.119509-111.43071-2.062374-0.249985-4.062252-0.749954-6.124626-1.124932l-2.62484-0.312481 0.374977-0.124992a188.051042 188.051042 0 0 1-81.120057-36.122799c-72.37059-55.746603-93.181822-150.115853-46.434671-210.799655 46.747152-60.683802 143.303768-64.683559 215.674358-8.936956 36.622768 28.248279 59.933848 66.370956 68.058353 104.993603 2.812329 9.374429 4.812207 19.6863 4.812207 31.373088V770.632639c0 3.812268-0.749954 7.06207-1.062435 10.686849 0.124992 1.874886 1.062435 3.999756 1.062435 5.874642v62.496192c0 34.497898-27.998294 53.99671-62.496192 43.434853L324.513143 786.819153C290.015245 776.319792 262.016951 739.75952 262.016951 705.261622v-62.496192c0-0.874947 0.437473-1.499909 0.499969-2.312359-0.062496-1.874886-0.49997-3.499787-0.499969-5.374672v-330.85484c0-87.119692-66.745933-107.055977-90.244501-111.430711-1.187428-0.187489-2.374855-0.562466-3.624779-0.749954-3.062313-0.49997-5.062192-0.687458-5.062192-0.687458l0.687458-0.312481a188.644755 188.644755 0 0 1-80.370103-35.93531c-72.37059-55.746603-93.119326-150.115853-46.43467-210.799656z"  horiz-adv-x="1024" />

    
    <glyph glyph-name="icon_pause_alt2" unicode="&#59114;" d="M512-128c282.752 0 512 229.248 512 512S794.752 896 512 896 0 666.752 0 384s229.248-512 512-512z m0 960c247.04 0 448-200.96 448-448s-200.96-448-448-448S64 136.96 64 384 264.96 832 512 832z m-128-640a64 64 0 0 1 64 64v256a64 64 0 0 1-128 0v-256a64 64 0 0 1 64-64z m256 0a64 64 0 0 1 64 64v256a64 64 0 0 1-128 0v-256a64 64 0 0 1 64-64z"  horiz-adv-x="1024" />

    
    <glyph glyph-name="icon_mug" unicode="&#59115;" d="M828.48 575.872c1.792 26.752 2.88 48.448 3.456 61.44A63.936 63.936 0 0 1 768 704H64A64.064 64.064 0 0 1 0.064 637.312c3.52-84.544 27.328-511.872 149.248-620.992A64 64 0 0 1 192 0h448a64 64 0 0 1 42.688 16.32c38.208 34.24 66.816 99.712 88.128 176.128l56.128 0.192c108.864 0 197.12 79.36 197.12 191.68-0.064 152.512-131.904 190.976-195.584 191.552zM640 64H192C84.032 160.64 64 640 64 640h704s-20.032-479.36-128-576z m186.88 192.64l-20.16-0.064-20.352-0.064c19.072 87.616 30.528 181.12 37.12 255.488h3.392c5.44 0 133.12-1.472 133.12-127.68 0-73.984-56-127.68-133.12-127.68z"  horiz-adv-x="1024" />

    
    <glyph glyph-name="icon_pencil-edit_alt" unicode="&#59116;" d="M659.84 121.024L832 64l-57.024 172.16-328.96 328.96-115.136-115.136zM263.104 517.76l115.136 115.136-84.736 84.736a81.376 81.376 0 1 1-115.136-115.136l84.736-84.736zM960 896H64a64 64 0 0 1-64-64v-896a64 64 0 0 1 64-64h896a64 64 0 0 1 64 64V832a64 64 0 0 1-64 64z m0-960H64V832h896v-896z"  horiz-adv-x="1024" />

    
    <glyph glyph-name="icon_ol" unicode="&#59117;" d="M864 448H352a32 32 0 0 1 0-64h512a32 32 0 0 1 0 64z m0 256H352a32 32 0 0 1 0-64h512a32 32 0 0 1 0 64z m0-512H352a32 32 0 0 1 0-64h512a32 32 0 0 1 0 64zM222.72 593.088V750.912h-18.24l-34.496-18.432 4.16-16.256 27.456 14.784h0.448v-137.92z m-50.752-226.624l-16.704-16.256v-13.12H256v17.728H185.088v0.448l12.608 11.648c33.28 32.064 54.4 55.616 54.4 84.736 0 22.592-14.336 45.888-48.32 45.888-18.24 0-33.728-6.784-44.672-16.064l6.784-15.04c7.296 6.08 19.2 13.376 33.536 13.376 23.552 0 31.296-14.784 31.296-30.848-0.192-23.744-18.432-44.16-58.752-82.496z m26.24-268.16a72 72 0 0 0-34.944 9.92l-5.824-16.512c7.744-5.12 23.296-10.688 41.024-10.688 37.888 0 57.536 22.08 57.536 47.36 0 22.08-15.808 36.672-35.2 40.576v0.448c19.456 7.04 29.12 20.864 29.12 37.184 0 19.2-14.08 37.632-45.184 37.632-17.024 0-33.024-6.08-41.28-12.16l5.568-15.552c6.784 4.864 18.944 10.432 31.552 10.432 19.648 0 27.712-11.2 27.712-23.808 0-18.688-19.648-26.688-35.2-26.688h-11.904v-16h11.904c20.672 0 40.576-9.472 40.768-31.552 0.32-13.12-8.192-30.592-35.648-30.592z"  horiz-adv-x="1024" />

    
    <glyph glyph-name="icon_pencil-edit" unicode="&#59118;" d="M672.293701 223.706299l-56.585461 170.836015L289.278085 720.972469 175.027531 606.721915l326.430155-326.430155zM23.688414 872.311586a80.750183 80.750183 0 0 1 0-114.250554l84.084343-84.084344 114.250555 114.250555L137.938968 872.311586a80.750183 80.750183 0 0 1-114.250554 0zM952.617184 705.476563H502.410303l63.507812-63.507812H952.617184v-698.585935H254.031249V330.081885l-63.507812 63.507812V-56.617184a63.507812 63.507812 0 0 1 63.507812-63.507812h698.585935a63.507812 63.507812 0 0 1 63.507812 63.507812V641.968751a63.507812 63.507812 0 0 1-63.507812 63.507812z"  horiz-adv-x="1024" />

    
    <glyph glyph-name="icon_pencil" unicode="&#59119;" d="M963.904-67.904l-67.264 203.008-543.04 543.04L320 644.544 217.856 542.4l543.04-543.04zM127.36 632.896L263.104 768.64l-67.2 67.2a95.936 95.936 0 0 1-135.744 0 95.936 95.936 0 0 1 0-135.744l67.2-67.2z"  horiz-adv-x="1024" />

    
    <glyph glyph-name="icon_pens" unicode="&#59120;" d="M128 704v-512l9.472-23.68L256-128l128 320-0.32 0.128c0.192 0.192 0.128 0.512 0.32 0.704V768c0 70.72-57.28 128-128 128S128 838.72 128 768v-64z m64 64c0 35.264 28.736 64 64 64s64-28.736 64-64v-64H192V768z m64-723.648L223.04 126.72l-12.8 32-0.96 2.368 46.72 23.36 46.72-23.36-0.96-2.432-12.8-32L256 44.352zM320 224l-64 32-64-32V640h128v-416zM805.888 705.344L744.576 864l-0.576-0.192C739.52 882.112 723.712 896 704 896c-21.184 0-37.888-15.872-40.832-36.224l-1.152 0.256-59.904-154.688L576 640v-640c0-70.72 57.28-128 128-128s128 57.28 128 128a64 64 0 0 1 64 64v192a64 64 0 0 1-64 64V640l-26.112 65.344zM768 256v-256c0-35.264-28.736-64-64-64s-64 28.736-64 64V640h128v-384z m-30.528 448h-66.944L704 787.648 737.472 704z"  horiz-adv-x="1024" />

    
    <glyph glyph-name="icon_pens_alt" unicode="&#59121;" d="M128 768v-576l9.472-23.68L256-128l128 320-0.32 0.128c0.192 0.192 0.128 0.512 0.32 0.704V768c0 70.72-57.28 128-128 128S128 838.72 128 768z m64 0c0 35.264 28.736 64 64 64s64-28.736 64-64v-64H192V768z m64-723.648L223.04 126.72l-12.8 32-0.96 2.368 46.72 23.36 46.72-23.36-0.96-2.432-12.8-32L256 44.352zM805.888 705.344l-60.48 154.688-0.576-0.128C741.824 880.192 725.12 896 704 896c-20.864 0-37.952-16.064-41.344-36.16l-0.64 0.128-59.904-154.624L576 640v-640c0-70.72 57.28-128 128-128s128 57.28 128 128a64 64 0 0 1 64 64v192a64 64 0 0 1-64 64V640l-26.112 65.344z m-59.456-23.808L763.072 640h-118.144l16.64 41.536 8.96 22.464L704 787.648 737.472 704l8.96-22.464z"  horiz-adv-x="1024" />

    
    <glyph glyph-name="icon_percent" unicode="&#59122;" d="M512 896C229.248 896 0 666.752 0 384s229.248-512 512-512 512 229.248 512 512S794.752 896 512 896z m0-960C264.96-64 64 136.96 64 384S264.96 832 512 832s448-200.96 448-448-200.96-448-448-448z m-60.032 609.984a97.984 97.984 0 1 1-195.968 0 97.984 97.984 0 0 1 195.968 0z m-131.968 0a34.016 34.016 0 1 0 68-0.032A34.016 34.016 0 0 0 320 545.984z m350.016-222.016a97.984 97.984 0 1 1 0-195.968 97.984 97.984 0 0 1 0 195.968z m0-131.968a34.016 34.016 0 1 0 0.032 68A34.016 34.016 0 0 0 670.016 192z m56.64 406.656a32 32 0 0 1-45.248 0l-384-384a32 32 0 0 1 45.248-45.312l384 384c12.48 12.544 12.48 32.768 0 45.312z"  horiz-adv-x="1024" />

    
    <glyph glyph-name="icon_plus" unicode="&#59123;" d="M288 320h224v-224a32 32 0 0 1 64 0v224h224a32 32 0 0 1 0 64h-224V608a32 32 0 0 1-64 0v-224H288a32 32 0 0 1 0-64z"  horiz-adv-x="1024" />

    
    <glyph glyph-name="icon_pin" unicode="&#59124;" d="M488.704-110.656c5.376-5.952 10.56-9.792 15.552-12.48l0.256-0.128a22.848 22.848 0 0 1 10.048-3.136c3.2 0 6.592 1.344 10.048 3.136l0.256 0.128c4.992 2.688 10.176 6.528 15.552 12.48 0 0 297.472 323.52 327.36 603.84 1.792 14.464 3.008 29.12 3.008 44.032C870.784 735.36 710.144 896 512 896S153.216 735.36 153.216 537.216c0-15.168 1.216-29.952 3.072-44.608 30.656-280.192 332.416-603.264 332.416-603.264zM512 768c127.232 0 230.784-103.552 230.784-230.784 0-127.232-103.552-230.784-230.784-230.784s-230.784 103.552-230.784 230.784C281.216 664.448 384.768 768 512 768z"  horiz-adv-x="1024" />

    
    <glyph glyph-name="icon_piechart" unicode="&#59125;" d="M512-128c165.056 0 311.488 78.464 405.12 199.744L512 384V896C229.248 896 0 666.752 0 384s229.248-512 512-512zM448 827.456V384c0-19.84 9.216-38.592 24.896-50.688l350.848-270.464A443.648 443.648 0 0 0 512-64C264.96-64 64 136.96 64 384 64 609.28 231.168 796.288 448 827.456zM600 887.424v-457.92l365.568-281.792A506.56 506.56 0 0 1 1024 384C1024 636.672 840.704 845.632 600 887.424z"  horiz-adv-x="1024" />

    
    <glyph glyph-name="icon_profile" unicode="&#59126;" d="M693.979735 714.020265c0 97.419818-84.559917 181.979735-181.979735 181.979735s-181.979735-84.559917-181.979735-181.979735 84.559917-181.979735 181.979735-181.979735 181.979735 84.559917 181.979735 181.979735z m-181.979735-242.639647c-159.414248 0-303.299558-171.97085-303.299558-385.675718s606.599116-213.704869 606.599116 0S671.414248 471.380618 512 471.380618z"  horiz-adv-x="1024" />

    
    <glyph glyph-name="icon_plus_alt2" unicode="&#59127;" d="M544 832C278.912 832 64 617.088 64 352s214.912-480 480-480 480 214.912 480 480S809.088 832 544 832z m0-896C314.624-64 128 122.624 128 352S314.624 768 544 768s416-186.624 416-416-186.624-416-416-416z m256 448h-224V608a32 32 0 0 1-64 0v-224H288a32 32 0 0 1 0-64h224v-224a32 32 0 0 1 64 0v224h224a32 32 0 0 1 0 64z"  horiz-adv-x="1024" />

    
    <glyph glyph-name="icon_phone" unicode="&#59128;" d="M422.912 637.952c-12.224 140.608-158.912 209.6-165.12 212.416a31.168 31.168 0 0 1-18.624 2.496c-169.344-28.096-194.816-126.656-195.84-130.752a31.68 31.68 0 0 1 0.64-17.28c201.984-626.688 621.76-742.848 759.744-781.056 10.624-2.944 19.392-5.312 26.048-7.488a31.68 31.68 0 0 1 23.104 1.344c4.224 1.92 103.936 48.896 128.32 202.112a31.904 31.904 0 0 1-3.072 19.584c-2.176 4.224-54.336 103.488-198.976 138.56a31.264 31.264 0 0 1-28.288-6.72c-45.632-38.976-108.672-80.512-135.872-84.8-182.336 89.152-284.16 260.224-288 292.672-2.24 18.24 39.552 82.304 87.616 134.4a31.936 31.936 0 0 1 8.32 24.512z"  horiz-adv-x="1024" />

    
    <glyph glyph-name="icon_plus_alt" unicode="&#59129;" d="M544 832C278.912 832 64 617.088 64 352s214.912-480 480-480 480 214.912 480 480S809.088 832 544 832z m256-512h-224v-224a32 32 0 0 0-64 0v224H288a32 32 0 0 0 0 64h224V608a32 32 0 0 0 64 0v-224h224a32 32 0 0 0 0-64z"  horiz-adv-x="1024" />

    
    <glyph glyph-name="icon_printer" unicode="&#59130;" d="M960 576h-64V832a64 64 0 0 1-64 64H192a64 64 0 0 1-64-64v-256H64a64 64 0 0 1-64-64v-320a64 64 0 0 1 64-64h64v-192a64 64 0 0 1 64-64h640a64 64 0 0 1 64 64v192h64a64 64 0 0 1 64 64V512a64 64 0 0 1-64 64zM192 256h640v-320H192V256z m640 64H192a64 64 0 0 1-64-64v-64H64V512h896v-320h-64v64a64 64 0 0 1-64 64zM192 832h640v-256H192V832z m512-416a32 32 0 1 1 64 0 32 32 0 1 1-64 0zM128 416a32 32 0 1 1 64 0 32 32 0 1 1-64 0z m704 0a32 32 0 1 1 64 0 32 32 0 1 1-64 0z m-64-256a32 32 0 0 1-32 32H288a32 32 0 0 1 0-64h448a32 32 0 0 1 32 32z m-32-96H288a32 32 0 0 1 0-64h448a32 32 0 0 1 0 64z"  horiz-adv-x="1024" />

    
    <glyph glyph-name="icon_printer-alt" unicode="&#59131;" d="M960 576h-64V832a64 64 0 0 1-64 64H192a64 64 0 0 1-64-64v-256H64a64 64 0 0 1-64-64v-320a64 64 0 0 1 64-64h64v-192a64 64 0 0 1 64-64h640a64 64 0 0 1 64 64v192h64a64 64 0 0 1 64 64V512a64 64 0 0 1-64 64zM192 256h640v-320H192V256z m512 160a32 32 0 1 0 64 0 32 32 0 0 0-64 0zM160 384a32 32 0 1 0 0 64 32 32 0 0 0 0-64z m704 0a32 32 0 1 0 0 64 32 32 0 0 0 0-64zM192 832h640v-256H192V832z m576-672a32 32 0 0 1-32 32H288a32 32 0 0 1 0-64h448a32 32 0 0 1 32 32z m-32-96H288a32 32 0 0 1 0-64h448a32 32 0 0 1 0 64z"  horiz-adv-x="1024" />

    
    <glyph glyph-name="icon_pin_alt" unicode="&#59132;" d="M486.784 370.432a166.976 166.976 0 0 1 166.784 166.784C653.568 629.184 578.752 704 486.784 704S320 629.184 320 537.216a166.976 166.976 0 0 1 166.784-166.784z m0 269.568c56.64 0 102.784-46.08 102.784-102.784s-46.08-102.784-102.784-102.784S384 480.576 384 537.216 430.08 640 486.784 640z m-23.296-750.656c5.376-5.952 10.56-9.792 15.552-12.48l0.256-0.128a22.848 22.848 0 0 1 10.048-3.136c3.2 0 6.592 1.344 10.048 3.136l0.256 0.128c4.992 2.688 10.176 6.528 15.552 12.48 0 0 297.472 323.52 327.36 603.84 1.792 14.464 3.008 29.12 3.008 44.032C845.568 735.36 684.928 896 486.784 896S128 735.36 128 537.216c0-15.168 1.216-29.952 3.072-44.608 30.656-280.192 332.416-603.264 332.416-603.264zM486.784 832c162.56 0 294.784-132.224 294.784-294.784 0-10.816-0.768-22.336-2.624-37.248-22.912-214.784-224.576-466.816-289.536-543.488-66.624 76.8-271.168 328.192-294.848 544A300 300 0 0 0 192 537.216C192 699.776 324.224 832 486.784 832z"  horiz-adv-x="1024" />

    
    <glyph glyph-name="icon_plus-box" unicode="&#59133;" d="M256 576v-448a64 64 0 0 1 64-64h448a64 64 0 0 1 64 64V576a64 64 0 0 1-64 64H320a64 64 0 0 1-64-64z m512-448H320V576h448v-448z m-352 192h96v-96a32 32 0 0 1 64 0v96h96a32 32 0 0 1 0 64h-96v96a32 32 0 0 1-64 0v-96h-96a32 32 0 0 1 0-64z"  horiz-adv-x="1024" />

    
    <glyph glyph-name="icon_percent_alt" unicode="&#59134;" d="M320 545.984a33.984 33.984 0 1 1 67.968 0 33.984 33.984 0 1 1-67.968 0zM512 896C229.248 896 0 666.752 0 384s229.248-512 512-512 512 229.248 512 512S794.752 896 512 896zM256 545.984a97.984 97.984 0 1 0 195.968 0 97.984 97.984 0 0 0-195.968 0z m86.656-376.64a32.128 32.128 0 0 0-45.312 0 32 32 0 0 0 0 45.248l384 384a32 32 0 0 0 45.248-45.248l-383.936-384zM670.016 128a97.984 97.984 0 1 0 0 195.968 97.984 97.984 0 0 0 0-195.968z m-33.984 97.984a33.984 33.984 0 1 1 67.968 0 33.984 33.984 0 1 1-67.968 0z"  horiz-adv-x="1024" />

    
    <glyph glyph-name="icon_pushpin_alt" unicode="&#59135;" d="M278.08 327.296a63.968 63.968 0 0 1 23.36-101.376c45.44-19.008 122.688-31.04 210.624-33.472L512 192v-192c0-35.328 14.336-128 32-128s32 92.672 32 128v192l-0.064 0.512c87.936 2.368 165.184 14.464 210.624 33.472a63.968 63.968 0 0 1 23.36 101.312c-26.24 29.76-72.064 46.208-105.92 54.784V713.6c33.472 11.328 61.888 25.536 84.352 42.112a64 64 0 0 1-17.664 112.192C739.456 878.4 668.416 896 544 896c-131.52 0-204.16-20.288-229.312-28.992a64 64 0 0 1-17.472-111.616c22.784-17.088 51.904-31.552 86.72-42.944H384V382.08c-33.792-8.512-79.68-24.96-105.92-54.784z m125.824 445.952c-33.408 10.944-55.104 23.424-68.224 33.344C369.728 818.368 438.656 832 544 832c103.296 0 171.712-13.12 206.4-24.768-13.568-9.984-35.072-22.208-66.944-33.024L640 759.488v-427.2l48.256-12.224c35.392-8.96 62.144-22.016 73.6-35.072-29.632-12.352-101.632-28.992-217.856-28.992s-188.224 16.64-217.856 28.992c11.52 13.056 38.272 26.112 73.6 35.072L448 332.288V758.848l-44.096 14.4z"  horiz-adv-x="1024" />

    
    <glyph glyph-name="icon_pushpin" unicode="&#59136;" d="M262.45692 287.302043c0-47.849886 120.404536-73.240894 249.605466-76.796883L512 209.756531v-187.15731c0-34.436945 13.974412-124.77154 31.192885-124.77154s31.192885 90.334595 31.192885 124.77154v187.15731l-0.062386 0.748629C703.524314 214.061149 823.92885 239.452157 823.92885 287.302043c0 50.782017-45.978312 87.839164-124.77154 107.80261V718.200556c78.793227 26.70111 124.77154 69.684905 124.77154 100.253932 0 103.373221-561.471929 103.373221-561.47193 0 0-33.62593 45.978312-75.673939 124.77154-101.376876v-321.972959c-78.793227-20.025832-124.77154-57.020594-124.77154-107.80261z"  horiz-adv-x="1024" />

    
    <glyph glyph-name="icon_puzzle" unicode="&#59137;" d="M359.936 145.792c-28.8 0-55.616 11.264-75.52 31.68-54.784 56.448-122.688 31.808-138.752-42.944-25.92-120.96-23.424-198.464 7.68-236.992 17.856-22.144 38.848-23.808 44.8-23.808l667.84-1.728c86.912 0 157.696 68.096 157.696 151.808v419.2l0.192 20.032c0.576 51.52 1.216 104.768-26.176 132.416-18.112 18.368-44.224 22.272-73.792 9.664-54.656-23.36-113.92-26.496-190.912-11.392-19.264 3.84-26.88 10.112-26.624 9.28 0 0.064 1.28 5.696 12.864 15.936 34.432 30.528 54.208 73.408 54.208 117.888C773.376 824.64 699.2 896 608 896c-91.136 0-165.312-71.36-165.312-159.104 0-43.648 19.968-84.608 59.328-121.92 1.856-1.856 5.632-5.44 8.576-8.768-6.4-3.136-19.136-7.744-43.456-11.84-63.616-10.688-126.272 4.416-174.208 15.744-53.504 12.608-87.552 16.768-107.328-3.328-22.144-22.4-70.208-90.944-39.744-244.928 4.608-23.552 18.816-95.232 73.28-95.232 26.944 0 47.104 19.52 59.584 31.488 79.232 76.224 182.592 21.696 182.592-57.216-0.064-52.416-45.504-95.104-101.376-95.104z m0 254.272c-44.8 0-87.04-18.752-127.232-57.344-2.176-2.176-7.04-6.784-10.944-9.728-3.136 5.376-8.32 17.152-13.12 41.28-23.04 116.48 6.272 167.68 18.816 183.36 10.816-0.32 30.208-4.928 50.816-9.792 39.744-9.344 89.216-20.992 143.872-20.992 19.2 0 37.952 1.472 55.616 4.416 36.608 6.144 86.656 18.752 98.24 56.704 10.624 34.944-17.856 61.952-30.144 73.536-26.368 25.024-39.168 49.6-39.168 75.392C506.688 789.312 552.128 832 608 832s101.376-42.688 101.376-95.104c0-26.496-11.584-51.328-32.576-69.888-35.968-31.744-37.504-60.48-32.448-78.976 7.616-28.16 35.456-48.96 76.16-56.96 89.6-17.536 162.176-12.992 228.48 15.232 2.048 0.96 3.648 1.408 4.48 1.856 7.104-14.336 6.592-61.12 6.336-84.352l-0.192-440c0-48.384-41.984-87.808-93.632-87.808l-661.76 0.576c-0.32 0.256-30.08 26.368 3.968 184.512 3.52 16.576 10.048 23.936 11.712 24.704 0 0 6.4-0.32 18.56-12.864a167.68 167.68 0 0 1 121.344-51.072c91.136 0 165.312 71.36 165.312 159.104s-74.048 159.104-165.184 159.104z"  horiz-adv-x="1024" />

    
    <glyph glyph-name="icon_puzzle_alt" unicode="&#59138;" d="M380.262752 95.786387a136.201135 136.201135 0 0 0-100.106557 44.143989c-44.143989 47.593736-76.341631 17.632042-85.988146-29.195084C145.296628-128 215.88868-126.147358 215.88868-126.147358l679.089151-1.852642c70.592052 0 127.76842 57.176368 127.76842 127.76842v447.189469c0 70.592052 8.177179 170.506956-56.218105 141.567409-48.743652-21.8484-112.819515-34.944663-213.245492-14.246179-46.827126 9.646516-76.78882 41.844157-29.195084 85.988147a136.105309 136.105309 0 0 1 44.143989 100.106556A135.65812 135.65812 0 0 1 632.605381 896a135.594235 135.594235 0 0 1-135.626177-135.626178c0-42.419115 22.103937-77.427662 50.021336-105.217293 16.801547-16.737663 61.137189-60.498347-52.321168-80.494105-124.765862-21.912284-244.420987 48.615884-268.505334 22.998316-15.971052-16.929316-59.923389-80.813525-31.686568-230.621998 21.465095-114.033315 63.88421-66.822884 80.557989-50.021336 27.789631 27.9174 62.798178 50.021336 105.217293 50.021336a135.626178 135.626178 0 0 0 0-271.252355z"  horiz-adv-x="1024" />

    
    <glyph glyph-name="icon_question_alt" unicode="&#59139;" d="M512-128c282.752 0 512 229.248 512 512S794.752 896 512 896 0 666.752 0 384s229.248-512 512-512z m0 896c127.424 0 256-72.96 256-236.032 0-94.912-47.04-169.024-139.776-220.032C601.344 297.152 576 267.904 576 256a64 64 0 0 0-128 0c0 81.216 74.496 143.872 118.528 168.064C631.232 459.776 640 498.688 640 531.968 640 625.984 559.808 640 512 640c-61.632 0-128-40.448-128-129.344a64 64 0 0 0-128 0C256 677.824 387.904 768 512 768z m0-770.816a65.92 65.92 0 1 0 0 131.84 65.92 65.92 0 0 0 0-131.84z"  horiz-adv-x="1024" />

    
    <glyph glyph-name="icon_question_alt2" unicode="&#59140;" d="M512 896C229.248 896 0 666.752 0 384s229.248-512 512-512 512 229.248 512 512S794.752 896 512 896z m0-960C264.96-64 64 136.96 64 384S264.96 832 512 832s448-200.96 448-448-200.96-448-448-448z m-71.232 127.104a65.92 65.92 0 1 1 131.84 0 65.92 65.92 0 1 1-131.84 0zM506.688 768c-124.096 0-256-90.176-256-257.344a64 64 0 1 1 128 0c0 88.896 66.368 129.344 128 129.344 47.808 0 128-14.016 128-108.032 0-33.344-8.768-72.256-73.536-107.968-44.032-24.128-118.464-86.784-118.464-168a64 64 0 1 1 128 0c0 11.904 25.344 41.152 52.16 55.936 92.736 51.072 139.84 125.12 139.84 220.032 0 163.072-128.576 236.032-256 236.032z"  horiz-adv-x="1024" />

    
    <glyph glyph-name="icon_quotations" unicode="&#59141;" d="M255.936 476.224c0-54.08 42.24-97.92 94.272-97.92 16.704 0 32.128 4.864 45.76 12.8-4.672-52.352-31.04-128.704-127.68-206.528-13.504-10.944-16-31.168-5.504-45.184 6.144-8.192 15.296-12.48 24.512-12.48a29.984 29.984 0 0 1 19.008 6.784c118.592 95.68 148.224 193.984 152.192 259.648 6.784 83.968-18.688 128.128-41.984 151.168-2.112 2.24-4.096 4.672-6.464 6.656a98.24 98.24 0 0 1-14.912 10.56c-0.192 0.128-0.32 0.32-0.512 0.384-0.32 0.192-0.64 0.256-0.96 0.384-6.336 3.52-10.88 5.184-10.88 5.184l0.32-0.768a85.952 85.952 0 0 1-32.896 7.232c-52.096 0-94.272-43.84-94.272-97.92z m310.272 0c0-54.08 42.176-97.92 94.272-97.92 16.704 0 32.128 4.864 45.76 12.8-4.672-52.352-31.04-128.704-127.68-206.528-13.568-10.944-16-31.168-5.504-45.184 6.144-8.192 15.296-12.48 24.512-12.48a29.984 29.984 0 0 1 19.008 6.784c118.592 95.68 148.224 193.984 152.192 259.648 6.784 83.968-18.752 128.128-41.984 151.168-2.176 2.24-4.16 4.672-6.528 6.656a98.24 98.24 0 0 1-14.912 10.56l-0.512 0.384c-0.32 0.192-0.64 0.256-0.96 0.384-6.336 3.456-10.88 5.184-10.88 5.184l0.32-0.768a86.24 86.24 0 0 1-32.896 7.232c-52.032 0-94.208-43.84-94.208-97.92z"  horiz-adv-x="1024" />

    
    <glyph glyph-name="icon_quotations_alt" unicode="&#59142;" d="M512 896C229.248 896 0 666.752 0 384s229.248-512 512-512 512 229.248 512 512S794.752 896 512 896z m256.832-502.656c-3.968-65.664-33.6-163.968-152.192-259.648a30.336 30.336 0 0 0-19.008-6.784 30.432 30.432 0 0 0-24.512 12.48 32.992 32.992 0 0 0 5.504 45.184c96.576 77.888 123.008 154.176 127.68 206.528-13.632-7.936-29.056-12.8-45.76-12.8-52.096 0-94.272 43.84-94.272 97.92s42.176 97.92 94.272 97.92c11.776 0 22.592-3.072 32.896-7.232l-0.384 0.768s4.544-1.664 10.88-5.184c0.32-0.192 0.64-0.256 0.96-0.384l0.512-0.384c4.352-2.496 9.344-5.824 14.912-10.56 2.368-2.048 4.352-4.416 6.528-6.656 23.232-23.104 48.704-67.2 41.984-151.168z m-418.624-15.04c-52.096 0-94.272 43.84-94.272 97.92s42.24 97.92 94.272 97.92c11.776 0 22.592-3.072 32.896-7.232l-0.32 0.768s4.544-1.664 10.88-5.184c0.32-0.192 0.64-0.256 0.96-0.384l0.512-0.384c4.352-2.496 9.344-5.824 14.912-10.56 2.368-2.048 4.352-4.416 6.528-6.656 23.232-23.104 48.768-67.2 41.984-151.232-3.968-65.664-33.6-163.968-152.192-259.648a30.336 30.336 0 0 0-19.008-6.784 30.432 30.432 0 0 0-24.512 12.48 32.992 32.992 0 0 0 5.504 45.184c96.576 77.888 123.008 154.176 127.68 206.528-13.696-7.808-29.12-12.736-45.824-12.736z"  horiz-adv-x="1024" />

    
    <glyph glyph-name="icon_refresh" unicode="&#59143;" d="M959.168 896c-35.84 0-64.832-29.056-64.832-64.832V680C821.248 768.512 737.024 896 505.216 896 226.688 896 0 669.376 0 390.784s226.688-505.216 505.216-505.216a504.64 504.64 0 0 1 480.128 347.648 65.984 65.984 0 1 1-125.44 41.28 372.8 372.8 0 0 0-354.688-256.896c-205.824 0-373.248 167.424-373.248 373.248s167.424 372.48 373.248 372.48c145.728 0 226.688-90.688 292.736-185.792h-163.008a64.832 64.832 0 1 1 0-129.664h324.224A64.672 64.672 0 0 1 1024 512.576V831.168A64.864 64.864 0 0 1 959.168 896z"  horiz-adv-x="1024" />

    
    <glyph glyph-name="icon_quotations_alt2" unicode="&#59144;" d="M512 896C229.248 896 0 666.752 0 384s229.248-512 512-512 512 229.248 512 512S794.752 896 512 896z m0-960C264.96-64 64 136.96 64 384S264.96 832 512 832s448-200.96 448-448-200.96-448-448-448z m-101.952 615.168a98.24 98.24 0 0 1-14.912 10.56c-0.192 0.128-0.32 0.32-0.512 0.384-0.32 0.192-0.64 0.256-0.96 0.384-6.336 3.52-10.88 5.184-10.88 5.184l0.32-0.768a85.952 85.952 0 0 1-32.896 7.232c-52.096 0-94.272-43.84-94.272-97.92s42.24-97.92 94.272-97.92c16.704 0 32.128 4.864 45.76 12.8-4.672-52.352-31.04-128.704-127.68-206.528-13.504-10.944-16-31.168-5.504-45.184 6.144-8.192 15.296-12.48 24.512-12.48a29.984 29.984 0 0 1 19.008 6.784c118.592 95.68 148.224 193.984 152.192 259.648 6.784 83.968-18.688 128.128-41.984 151.168-2.112 2.24-4.096 4.672-6.464 6.656z m310.272 0a98.24 98.24 0 0 1-14.912 10.56l-0.512 0.384c-0.32 0.192-0.64 0.256-0.96 0.384-6.336 3.456-10.88 5.184-10.88 5.184l0.32-0.768a86.24 86.24 0 0 1-32.896 7.232c-52.096 0-94.272-43.84-94.272-97.92s42.176-97.92 94.272-97.92c16.704 0 32.128 4.864 45.76 12.8-4.672-52.352-31.04-128.704-127.68-206.528-13.568-10.944-16-31.168-5.504-45.184 6.144-8.192 15.296-12.48 24.512-12.48a29.984 29.984 0 0 1 19.008 6.784c118.592 95.68 148.224 193.984 152.192 259.648 6.784 83.968-18.752 128.128-41.984 151.168-2.112 2.24-4.096 4.672-6.464 6.656z"  horiz-adv-x="1024" />

    
    <glyph glyph-name="icon_question" unicode="&#59145;" d="M440.768 63.104a65.92 65.92 0 1 1 131.84 0 65.92 65.92 0 1 1-131.84 0z m182.08 248.832c92.736 51.072 139.84 125.12 139.84 220.032 0 163.008-128.576 236.032-256 236.032-124.096 0-256-90.176-256-257.344a64 64 0 1 1 128 0c0 88.896 66.368 129.344 128 129.344 47.808 0 128-14.016 128-108.032 0-33.344-8.768-72.256-73.536-107.968-44.032-24.128-118.464-86.784-118.464-168a64 64 0 1 1 128 0c0 11.904 25.28 41.152 52.16 55.936z"  horiz-adv-x="1024" />

    
    <glyph glyph-name="icon_search2" unicode="&#59146;" d="M605.535876 896C377.54283 896 192.735096 711.192266 192.735096 483.19922c0-98.11957 34.421234-188.173648 91.578266-259.048366L11.4838-48.678708a44.010914 44.010914 0 0 1 62.174148-62.174148l272.829562 272.829562A411.308346 411.308346 0 0 1 605.535876 70.39844c227.993046 0 412.80078 184.807734 412.80078 412.80078S833.528922 896 605.535876 896z m0-762.093747c-192.619195 0-349.292968 156.673773-349.292967 349.292967S412.916682 832.492188 605.535876 832.492188s349.292968-156.673773 349.292968-349.292968-156.673773-349.292968-349.292968-349.292967z"  horiz-adv-x="1026" />

    
    <glyph glyph-name="icon_star" unicode="&#59147;" d="M664.192 519.424l-156.8 317.696-156.8-317.696L0 468.48l253.696-247.296L193.792-128l313.6 164.864 313.6-164.864-59.904 349.184 253.696 247.296z"  horiz-adv-x="1024" />

    
    <glyph glyph-name="icon_stop_alt" unicode="&#59148;" d="M512 896C229.248 896 0 666.752 0 384s229.248-512 512-512 512 229.248 512 512S794.752 896 512 896z m192-640a64 64 0 0 0-64-64h-256a64 64 0 0 0-64 64v256a64 64 0 0 0 64 64h256a64 64 0 0 0 64-64v-256z"  horiz-adv-x="1024" />

    
    <glyph glyph-name="icon_stop" unicode="&#59149;" d="M640 192a64 64 0 0 1 64 64v256a64 64 0 0 1-64 64h-256a64 64 0 0 1-64-64v-256a64 64 0 0 1 64-64h256z"  horiz-adv-x="1024" />

    
    <glyph glyph-name="icon_search" unicode="&#59150;" d="M64-64h576a64 64 0 0 1 64 64v86.4a224.672 224.672 0 0 1 38.336 23.36l196.416-196.416a32.128 32.128 0 0 1 45.312 0 32 32 0 0 1 0 45.248l-196.544 196.544A222.4 222.4 0 0 1 832 288c0 89.216-52.544 165.568-128 201.6V832a64 64 0 0 1-64 64H64a64 64 0 0 1-64-64v-832a64 64 0 0 1 64-64z m544 192c-88.192 0-160 71.808-160 160s71.808 160 160 160 160-71.808 160-160-71.808-160-160-160zM64 832h576v-320H169.152C146.432 512 128 497.664 128 480s18.432-32 41.152-32h282.432a222.816 222.816 0 0 1-64.384-128H160a32 32 0 0 1 0-64h227.2c15.68-108.416 108.032-192 220.8-192 10.944 0 21.44 1.728 32 3.2V0H64V832z m96-192h384a32 32 0 0 1 0 64H160a32 32 0 0 1 0-64z"  horiz-adv-x="1024" />

    
    <glyph glyph-name="icon_star-half" unicode="&#59151;" d="M512 36.864V837.12l-156.8-317.696L4.608 468.48l253.696-247.296L198.4-128z"  horiz-adv-x="1024" />

    
    <glyph glyph-name="icon_shield_alt" unicode="&#59152;" d="M494.4-125.504a63.552 63.552 0 0 1 35.2 0c396.096 113.152 454.4 513.536 429.952 709.504A64.096 64.096 0 0 1 896 640c-9.152 0.704-64 10.176-64 128 0 16.96-6.72 33.28-18.752 45.248C799.424 827.072 720 896 512 896S224.576 827.072 210.752 813.248A63.84 63.84 0 0 1 192 768c0-117.824-54.848-127.296-65.856-128.064-32.256 0-57.664-24-61.696-56-24.448-195.904 33.92-596.288 429.952-709.44zM128 576s128 0 128 192c0 0 64 64 256 64v-448h376.896C863.68 224.576 779.072 12.288 512-64V384H135.104C118.08 492.032 128 576 128 576z"  horiz-adv-x="1024" />

    
    <glyph glyph-name="arrow_carrot_up_alt" unicode="&#58897;" d="M544-128c265.088 0 480 214.912 480 480S809.088 832 544 832 64 617.088 64 352s214.912-480 480-480zM313.728 294.848L521.28 502.4a31.904 31.904 0 0 0 22.72 9.344c8.256 0 16.448-3.072 22.72-9.344l207.552-207.552a32 32 0 0 0-45.248-45.248L544 434.624 358.976 249.6a32 32 0 0 0-45.248 45.248z"  horiz-adv-x="1024" />

    
    <glyph glyph-name="icon_ribbon_alt" unicode="&#59153;" d="M167.491122-123.126764a63.99942 63.99942 0 0 1 69.759368 13.887874L512 165.51062l274.74951-274.74951A63.99942 63.99942 0 0 1 895.99652-63.9913V832.00058a63.99942 63.99942 0 0 1-63.99942 63.99942H192.0029a63.99942 63.99942 0 0 1-63.99942-63.99942v-895.99188c0-25.855766 15.615858-49.215554 39.487642-59.135464zM512 256.0058L192.0029-63.9913V640.00232h639.9942v-703.99362L512 256.0058zM831.9971 832.00058v-127.99884H192.0029V832.00058h639.9942z"  horiz-adv-x="1024" />

    
    <glyph glyph-name="arrow_back" unicode="&#58898;" d="M137.344 393.344l192-192a32 32 0 0 1 45.248 45.248L237.248 384H704c128 0 192-118.144 192-224a32 32 0 0 1 64 0c0 141.184-64 288-256 288H237.248l137.344 137.344a32 32 0 0 1-45.248 45.248l-192-192a32 32 0 0 1 0-45.248z"  horiz-adv-x="1024" />

    
    <glyph glyph-name="icon_search_alt" unicode="&#59154;" d="M64-64h576a64 64 0 0 1 64 64v86.4a224.672 224.672 0 0 1 38.336 23.36l196.416-196.416a32.128 32.128 0 0 1 45.312 0 32 32 0 0 1 0 45.248l-196.544 196.544A222.4 222.4 0 0 1 832 288c0 89.216-52.544 165.568-128 201.6V832a64 64 0 0 1-64 64H64a64 64 0 0 1-64-64v-832a64 64 0 0 1 64-64z m544 192c-88.192 0-160 71.808-160 160s71.808 160 160 160 160-71.808 160-160-71.808-160-160-160zM544 640H160a32 32 0 0 0 0 64h384a32 32 0 0 0 0-64zM160 512h384c6.208 0 11.648-2.24 16.512-5.248A223.52 223.52 0 0 1 451.584 448H160a32 32 0 0 0 0 64z m0-192h227.2c-1.472-10.56-3.2-21.056-3.2-32s1.728-21.44 3.2-32H160a32 32 0 0 0 0 64z"  horiz-adv-x="1024" />

    
    <glyph glyph-name="arrow_carrot-2left" unicode="&#58899;" d="M265.408 361.984l189.376-214.08a32.224 32.224 0 0 1 45.504 45.504l-169.6 191.744 169.6 191.744a32.224 32.224 0 0 1-45.504 45.504l-189.376-214.016c-6.4-6.4-9.408-14.784-9.344-23.168-0.064-8.384 2.944-16.832 9.344-23.232z m464.448 260.48a32.224 32.224 0 0 1-45.504 0l-189.44-214.08c-6.4-6.4-9.472-14.784-9.344-23.168-0.064-8.384 2.944-16.832 9.344-23.232l189.376-214.08a32.224 32.224 0 0 1 45.504 45.504l-169.6 191.744 169.6 191.744a32.224 32.224 0 0 1 0.064 45.568z"  horiz-adv-x="1024" />

    
    <glyph glyph-name="icon_star_alt" unicode="&#59155;" d="M1020.256436 481.740816a64.126016 64.126016 0 0 1-51.646402 43.582652l-275.831467 40.06276-123.388183 249.912269a63.99802 63.99802 0 0 1-114.812448 0l-123.324184-249.912269-275.831467-40.06276a63.966021 63.966021 0 0 1-35.454903-109.180622l199.609825-194.553981-47.102543-274.743501A64.062018 64.062018 0 0 1 235.512714-127.968321c10.175685 0 20.415368 2.431925 29.759079 7.359772L511.98416 9.115438l246.712368-129.723987a63.774027 63.774027 0 0 1 67.389915 4.86385 64.062018 64.062018 0 0 1 25.471212 62.590063l-47.102543 274.743501 199.609825 194.553981c17.407461 16.959475 23.679267 42.430687 16.191499 65.59797z m-284.599195-237.816642L788.455607-63.970301 511.98416 81.369203 235.512714-63.970301l52.798366 307.894475-223.67308 218.041254 309.110437 44.92661L511.98416 787.011372l138.235724-280.119334 309.110437-44.92661-223.67308-218.041254z"  horiz-adv-x="1031" />

    
    <glyph glyph-name="arrow_carrot-2down" unicode="&#58900;" d="M702.592 372.352l-191.744-169.6-191.744 169.6a32.224 32.224 0 0 1-45.504-45.504l214.08-189.376c6.4-6.4 14.784-9.472 23.168-9.344a31.808 31.808 0 0 1 23.168 9.28l214.08 189.376a32.224 32.224 0 0 1-45.504 45.568z m45.504 229.504a32.224 32.224 0 0 1-45.504 0l-191.744-169.6-191.744 169.6a32.224 32.224 0 0 1-45.568-45.504l214.08-189.376c6.4-6.4 14.784-9.472 23.168-9.344a31.776 31.776 0 0 1 23.168 9.344l214.08 189.376a32.032 32.032 0 0 1 0.064 45.504z"  horiz-adv-x="1024" />

    
    <glyph glyph-name="icon_shield" unicode="&#59156;" d="M494.4-125.504a63.552 63.552 0 0 1 35.2 0c396.096 113.152 454.4 513.536 429.952 709.504A64.096 64.096 0 0 1 896 640c-9.152 0.704-64 10.176-64 128 0 16.96-6.72 33.28-18.752 45.248C799.424 827.072 720 896 512 896S224.576 827.072 210.752 813.248A63.84 63.84 0 0 1 192 768c0-117.824-54.848-127.296-65.856-128.064-32.256 0-57.664-24-61.696-56-24.448-195.904 33.92-596.288 429.952-709.44zM128 576s128 0 128 192c0 0 64 64 256 64s256-64 256-64c0-192 128-192 128-192s64-512-384-640C64 64 128 576 128 576z m384-320a64 64 0 0 1 64 64V640a64 64 0 0 1-128 0v-320a64 64 0 0 1 64-64z m-64-128a64 64 0 1 1 128 0 64 64 0 1 1-128 0z"  horiz-adv-x="1024" />

    
    <glyph glyph-name="arrow_carrot-2dwnn_alt" unicode="&#58901;" d="M546.112 827.712c-263.936 0-477.888-213.952-477.888-477.888S282.24-128 546.112-128 1024 85.952 1024 349.888 810.048 827.712 546.112 827.712z m233.984-532.928l-214.08-189.376c-6.4-6.4-14.784-9.472-23.168-9.344a32.16 32.16 0 0 0-23.232 9.344l-214.08 189.376a32.224 32.224 0 0 0 45.504 45.504l191.744-169.6 191.744 169.6a32.224 32.224 0 0 0 45.568-45.504z m0 229.504l-214.08-189.376c-6.4-6.4-14.784-9.472-23.168-9.344a32.16 32.16 0 0 0-23.232 9.344l-214.08 189.376a32.224 32.224 0 0 0 45.504 45.568l191.744-169.6 191.744 169.6a32.224 32.224 0 0 0 45.568-45.568z"  horiz-adv-x="1024" />

    
    <glyph glyph-name="icon_rook" unicode="&#59157;" d="M640 448h-256v-320c0-64-128-156.672-128-192v-32a32 32 0 0 1 32-32h448a32 32 0 0 1 32 32v32c0 35.328-128 128-128 192V448z m101.312 382.912V832h-64v-1.088C675.52 831.232 673.92 832 672 832a32 32 0 0 1-32-32v-32h-64V800a31.552 31.552 0 0 1-26.688 30.912V832h-64v-1.088C483.52 831.232 481.92 832 480 832a32 32 0 0 1-32-32v-32h-64V800a31.552 31.552 0 0 1-26.688 30.912V832h-64v-1.088C291.52 831.232 289.92 832 288 832a32 32 0 0 1-32-32v-160c0-16.96 6.72-33.28 18.752-45.248l64-64c12.032-12.032 28.288-18.752 45.248-18.752h256c16.96 0 33.28 6.72 45.248 18.752l64 64C761.28 606.72 768 623.04 768 640V800a31.552 31.552 0 0 1-26.688 30.912z"  horiz-adv-x="1024" />

    
    <glyph glyph-name="arrow_carrot-2down_alt2" unicode="&#58902;" d="M734.592 340.352l-191.744-169.6-191.744 169.6a32.224 32.224 0 0 1-45.504-45.504l214.08-189.376c6.4-6.4 14.784-9.472 23.168-9.344a31.776 31.776 0 0 1 23.168 9.344l214.08 189.376a32.224 32.224 0 0 1-45.504 45.504z m0 229.504l-191.744-169.6-191.744 169.6a32.224 32.224 0 0 1-45.568-45.504l214.08-189.376c6.4-6.4 14.784-9.472 23.168-9.344a31.776 31.776 0 0 1 23.168 9.344l214.08 189.376a32.128 32.128 0 1 1-45.44 45.504z m-188.288 257.536c-263.808 0-477.696-213.888-477.696-477.696S282.496-128 546.304-128 1024 85.888 1024 349.696 810.112 827.392 546.304 827.392z m0-891.392C318.208-64 132.608 121.6 132.608 349.696s185.6 413.696 413.696 413.696S960 577.792 960 349.696 774.4-64 546.304-64z"  horiz-adv-x="1024" />

    
    <glyph glyph-name="icon_target" unicode="&#59158;" d="M512 896C229.248 896 0 666.752 0 384s229.248-512 512-512 512 229.248 512 512S794.752 896 512 896z m0-960C264.96-64 64 136.96 64 384S264.96 832 512 832s448-200.96 448-448-200.96-448-448-448z m0 768C335.296 704 192 560.704 192 384s143.296-320 320-320 320 143.296 320 320S688.704 704 512 704z m0-512c-105.856 0-192 86.144-192 192s86.144 192 192 192 192-86.144 192-192-86.144-192-192-192z m-64 192a64 64 0 1 1 128 0 64 64 0 1 1-128 0z"  horiz-adv-x="1024" />

    
    <glyph glyph-name="arrow_carrot-2right" unicode="&#58903;" d="M758.592 406.016l-189.376 214.08a32.224 32.224 0 0 1-45.504-45.504l169.6-191.744-169.6-191.744a32.224 32.224 0 0 1 45.504-45.504l189.376 214.08c6.4 6.4 9.472 14.784 9.344 23.168a32.128 32.128 0 0 1-9.344 23.168z m-464.448-260.48c12.544-12.544 32.96-12.544 45.504 0l189.376 214.08c6.4 6.4 9.472 14.784 9.344 23.168a31.776 31.776 0 0 1-9.344 23.168l-189.312 214.144a32.224 32.224 0 0 1-45.504-45.504l169.6-191.744-169.6-191.744a32.224 32.224 0 0 1-0.064-45.568z"  horiz-adv-x="1024" />

    
    <glyph glyph-name="icon_tablet" unicode="&#59159;" d="M832-128a64 64 0 0 1 64 64V832a64 64 0 0 1-64 64H192a64 64 0 0 1-64-64v-896a64 64 0 0 1 64-64h640z m-320 28.032a35.968 35.968 0 1 0 0 71.904 35.968 35.968 0 0 0 0-71.904zM256 768h512v-768H256V768z"  horiz-adv-x="1024" />

    
    <glyph glyph-name="arrow_carrot-2up_alt2" unicode="&#58904;" d="M568.384 598.592a31.872 31.872 0 0 1-23.168 9.344 31.904 31.904 0 0 1-23.232-9.344l-214.08-189.376a32.224 32.224 0 0 1 45.504-45.504l191.744 169.664 191.744-169.664a32.224 32.224 0 0 1 45.504 45.504l-214.016 189.376z m0-229.504a31.872 31.872 0 0 1-23.168 9.344 31.904 31.904 0 0 1-23.232-9.344l-214.08-189.376a32.224 32.224 0 0 1 45.504-45.504l191.744 169.6 191.744-169.6a32.224 32.224 0 0 1 45.504 45.504l-214.016 189.376z m-22.08 458.304c-263.808 0-477.696-213.888-477.696-477.696S282.496-128 546.304-128 1024 85.888 1024 349.696 810.112 827.392 546.304 827.392z m0-891.392C318.208-64 132.608 121.6 132.608 349.696s185.6 413.696 413.696 413.696S960 577.792 960 349.696 774.4-64 546.304-64z"  horiz-adv-x="1024" />

    
    <glyph glyph-name="icon_stop_alt2" unicode="&#59160;" d="M512 896C229.248 896 0 666.752 0 384s229.248-512 512-512 512 229.248 512 512S794.752 896 512 896z m0-960C264.96-64 64 136.96 64 384S264.96 832 512 832s448-200.96 448-448-200.96-448-448-448z m128 640h-256a64 64 0 0 1-64-64v-256a64 64 0 0 1 64-64h256a64 64 0 0 1 64 64v256a64 64 0 0 1-64 64z"  horiz-adv-x="1024" />

    
    <glyph glyph-name="arrow_carrot-down_alt" unicode="&#58905;" d="M544 832C278.912 832 64 617.088 64 352s214.912-480 480-480 480 214.912 480 480S809.088 832 544 832z m230.272-422.848L566.72 201.6a31.744 31.744 0 0 0-22.72-9.344 31.904 31.904 0 0 0-22.72 9.344l-207.552 207.552a32 32 0 0 0 45.248 45.248L544 269.376l185.024 185.024a32 32 0 0 0 45.248-45.248z"  horiz-adv-x="1024" />

    
    <glyph glyph-name="icon_table" unicode="&#59161;" d="M1022.912 771.328C1020.096 804.288 993.472 832 960 832H64C30.528 832 3.904 804.288 1.088 771.328H0V-64a64 64 0 0 1 64-64h896a64 64 0 0 1 64 64V771.328h-1.088zM384 448V640h256v-192h-256z m256-64v-197.312h-256V384h256zM320 640v-192H64V640h256z m-256-256h256v-197.312H64V384z m0-448v192h256v-192H64z m320 0v192h256v-192h-256z m576 0h-256v192h256v-192z m0 250.688h-256V384h256v-197.312zM960 448h-256V640h256v-192z"  horiz-adv-x="1024" />

    
    <glyph glyph-name="arrow_carrot-down" unicode="&#58906;" d="M729.024 454.4L544 269.376 358.976 454.4a32 32 0 0 1-45.248-45.248L521.28 201.6a31.744 31.744 0 0 1 22.72-9.344 31.904 31.904 0 0 1 22.72 9.344l207.552 207.552a32 32 0 0 1-45.248 45.248z"  horiz-adv-x="1024" />

    
    </font>
</defs>
</svg>
