<?xml version="1.0" encoding="UTF-8"?>
<svg width="12px" height="14px" viewBox="0 0 12 14" version="1.1" xmlns="http://www.w3.org/2000/svg" xmlns:xlink="http://www.w3.org/1999/xlink">
    <!-- Generator: Sketch 64 (93537) - https://sketch.com -->
    <title>afsb_icon</title>
    <desc>Created with Sketch.</desc>
    <defs>
        <linearGradient x1="50%" y1="0%" x2="50%" y2="100%" id="linearGradient-1">
            <stop stop-color="#5CE8FF" offset="0%"></stop>
            <stop stop-color="#5466E0" offset="100%"></stop>
        </linearGradient>
    </defs>
    <g id="页面-1" stroke="none" stroke-width="1" fill="none" fill-rule="evenodd">
        <g id="首页-总览" transform="translate(-47.000000, -105.000000)" fill="url(#linearGradient-1)" fill-rule="nonzero">
            <g id="安防设备" transform="translate(30.000000, 94.000000)">
                <g id="afsb_icon" transform="translate(16.881721, 11.000000)">
                    <path d="M12.110987,4.52997245 C12.1635014,6.30986427 11.9431857,8.20301944 11.0959114,9.97887786 C10.1971666,11.8588937 8.7898402,13.2059401 6.7596752,13.886532 C6.32081721,14.0408883 5.84050506,14.0376673 5.40383325,13.8774398 C2.97628141,13.0309726 1.52057429,11.2925496 0.721680751,8.95845486 C0.261507606,7.61139478 0.102962076,6.2178207 0.119427651,4.80098962 C0.128697366,4.11734874 0.119427651,3.43774125 0.119427651,2.74905519 C0.119427651,2.06036913 0.457104158,1.76303231 1.15510256,1.73775178 C1.80904739,1.72765174 2.46198408,1.68342709 3.11115159,1.60526483 C4.01092635,1.47581318 4.69966896,0.930729852 5.35955853,0.357317016 C5.89180162,-0.101807022 6.25110746,-0.119007083 6.81114578,0.308779484 C7.51120411,0.841735261 8.17831738,1.45053264 9.09045176,1.59413537 C9.71088571,1.68100549 10.3364343,1.72796586 10.9631012,1.73471647 C11.7959698,1.7579598 12.106881,2.03811023 12.1078971,2.84714202 L12.1078971,4.53300776 L12.110987,4.52997245 Z M5.39044366,7.75501118 C4.79849024,7.19475134 4.23740804,6.65067978 3.66089023,6.12278285 C3.35821872,5.84669316 3.02055613,5.85275009 2.79406053,6.10254748 C2.56756493,6.35234486 2.61492955,6.62437381 2.90936131,6.91159294 C3.5888342,7.57029055 4.27173567,8.22595286 4.95806574,8.87857986 C5.07088474,8.99836187 5.229471,9.06646138 5.3955935,9.06646138 C5.561716,9.06646138 5.72030225,8.99836187 5.83312126,8.87857986 C7.10558681,7.66500483 8.37530114,6.45143891 9.64226425,5.2378821 C9.96964107,4.92437066 10.0108259,4.59873168 9.77301455,4.36714612 C9.53520322,4.13556057 9.19855668,4.14567825 8.87013597,4.44905833 C8.77954051,4.52997245 8.69615483,4.61896704 8.60763323,4.70290279 L5.39042974,7.75502486 L5.39044366,7.75501118 Z" id="形状"></path>
                </g>
            </g>
        </g>
    </g>
</svg>