<?xml version="1.0" encoding="UTF-8"?>
<svg width="14px" height="12px" viewBox="0 0 14 12" version="1.1" xmlns="http://www.w3.org/2000/svg" xmlns:xlink="http://www.w3.org/1999/xlink">
    <!-- Generator: Sketch 64 (93537) - https://sketch.com -->
    <title>czxt-icon</title>
    <desc>Created with Sketch.</desc>
    <defs>
        <linearGradient x1="50%" y1="0%" x2="50%" y2="100%" id="linearGradient-1">
            <stop stop-color="#5CE8FF" offset="0%"></stop>
            <stop stop-color="#5466E0" offset="100%"></stop>
        </linearGradient>
    </defs>
    <g id="页面-1" stroke="none" stroke-width="1" fill="none" fill-rule="evenodd">
        <g id="首页-总览" transform="translate(-1611.000000, -106.000000)" fill="url(#linearGradient-1)" fill-rule="nonzero">
            <g id="操作系统和数据库" transform="translate(1595.000000, 94.000000)">
                <g id="czxt-icon" transform="translate(15.845118, 12.000000)">
                    <path d="M9.75071549,11.7142857 C9.75071549,11.8571429 9.60488215,12 9.45904883,12 L4.79238215,12 C4.64654882,12 4.50071549,11.8571429 4.50071549,11.7142857 C4.50071549,11.5714286 4.61738215,11.4285714 4.79238215,11.4285714 L9.45904883,11.4285714 C9.60488217,11.4285714 9.75071549,11.5714286 9.75071549,11.7142857 Z M13.5715488,0 L0.738215493,0 C0.417382155,0 0.154882155,0.257142857 0.154882155,0.571428576 L0.154882155,9.42857143 C0.154882155,9.74285715 0.417382155,10 0.738215493,10 L13.5715488,10 C13.8923822,10 14.1548822,9.74285715 14.1548822,9.42857143 L14.1548822,0.571428576 C14.1548822,0.257142857 13.8923822,0 13.5715488,0 Z M5.56316914,2.66666667 C5.76270428,2.66666667 5.92445946,2.82842185 5.92445946,3.02795699 L5.92530424,3.62519716 C6.24975644,3.76001892 6.4774628,4.07606194 6.4774628,4.44444444 C6.4774628,4.81282695 6.24975644,5.12886996 5.92530424,5.26369173 L5.92445946,6.74982079 C5.92445946,6.94935592 5.76270428,7.11111111 5.56316914,7.11111111 C5.363634,7.11111111 5.20187882,6.94935592 5.20187882,6.74982079 L5.20092563,5.25409761 C4.88835792,5.11429633 4.67101119,4.80434952 4.67101119,4.44444444 C4.67101119,4.08453936 4.88835792,3.77459256 5.20092563,3.63479128 L5.20187882,3.02795699 C5.20187882,2.82842185 5.363634,2.66666667 5.56316914,2.66666667 Z M8.72445946,2.66666667 C8.9239946,2.66666667 9.08574979,2.82842185 9.08574979,3.02795699 L9.08557609,4.51366356 C9.41057014,4.64824669 9.63875312,4.96456549 9.63875312,5.33333333 C9.63875312,5.70210117 9.41057014,6.01841997 9.08557609,6.1530031 L9.08574979,6.74982079 C9.08574979,6.94935592 8.9239946,7.11111111 8.72445946,7.11111111 C8.52492433,7.11111111 8.36316914,6.94935592 8.36316914,6.74982079 L8.36221595,6.1429865 C8.04964825,6.00318522 7.83230151,5.69323841 7.83230151,5.33333333 C7.83230151,4.97342825 8.04964825,4.66348144 8.36221595,4.52368017 L8.36316914,3.02795699 C8.36316914,2.82842185 8.52492433,2.66666667 8.72445946,2.66666667 Z" id="形状"></path>
                </g>
            </g>
        </g>
    </g>
</svg>