<?xml version="1.0" encoding="UTF-8"?>
<svg width="12px" height="10px" viewBox="0 0 12 10" version="1.1" xmlns="http://www.w3.org/2000/svg" xmlns:xlink="http://www.w3.org/1999/xlink">
    <!-- Generator: Sketch 64 (93537) - https://sketch.com -->
    <title>itsb_icon</title>
    <desc>Created with Sketch.</desc>
    <defs>
        <linearGradient x1="50%" y1="0%" x2="50%" y2="100%" id="linearGradient-1">
            <stop stop-color="#5CE8FF" offset="0%"></stop>
            <stop stop-color="#5466E0" offset="100%"></stop>
        </linearGradient>
    </defs>
    <g id="页面-1" stroke="none" stroke-width="1" fill="none" fill-rule="evenodd">
        <g id="首页-总览" transform="translate(-672.000000, -107.000000)" fill="url(#linearGradient-1)" fill-rule="nonzero">
            <g id="IT设备" transform="translate(656.000000, 94.000000)">
                <g id="itsb_icon" transform="translate(15.787879, 13.000000)">
                    <path d="M12.2121212,7.51488095 C12.2121212,7.65459821 12.1028724,7.76785714 11.9681021,7.76785714 L0.456140351,7.76785714 C0.321370016,7.76785714 0.212121212,7.65459821 0.212121212,7.51488095 L0.212121212,6.5327381 C0.212121212,6.39302083 0.321370016,6.2797619 0.456140351,6.2797619 L11.9681021,6.2797619 C12.1028724,6.2797619 12.2121212,6.39302083 12.2121212,6.5327381 L12.2121212,7.51488095 Z M12.2121212,9.74702381 C12.2121212,9.88674107 12.1028724,10 11.9681021,10 L0.456140351,10 C0.321370016,10 0.212121212,9.88674107 0.212121212,9.74702381 L0.212121212,8.76488095 C0.212121212,8.62516369 0.321370016,8.51190476 0.456140351,8.51190476 L11.9681021,8.51190476 C12.1028724,8.51190476 12.2121212,8.62516369 12.2121212,8.76488095 L12.2121212,9.74702381 Z M11.9681021,0 L0.456140351,0 C0.321370016,0 0.212121212,0.113258929 0.212121212,0.25297619 L0.212121212,5.2827381 C0.212121212,5.42245536 0.321370016,5.53571429 0.456140351,5.53571429 L11.9681021,5.53571429 C12.1028724,5.53571429 12.2121212,5.42245536 12.2121212,5.2827381 L12.2121212,0.25297619 C12.2121212,0.113258929 12.1028724,0 11.9681021,0 Z M5.09250399,2.45535714 C5.09250399,2.5950744 4.98325518,2.70833333 4.84848485,2.70833333 L1.60446571,2.70833333 C1.46969537,2.70833333 1.36044657,2.5950744 1.36044657,2.45535714 L1.36044657,1.47321429 C1.36044657,1.33349702 1.46969537,1.2202381 1.60446571,1.2202381 L4.84848485,1.2202381 C4.98325518,1.2202381 5.09250399,1.33349702 5.09250399,1.47321429 L5.09250399,2.45535714 Z" id="形状"></path>
                </g>
            </g>
        </g>
    </g>
</svg>