<?xml version="1.0" encoding="UTF-8"?>
<svg width="13px" height="14px" viewBox="0 0 13 14" version="1.1" xmlns="http://www.w3.org/2000/svg" xmlns:xlink="http://www.w3.org/1999/xlink">
    <!-- Generator: Sketch 64 (93537) - https://sketch.com -->
    <title>yyrj_icon</title>
    <desc>Created with Sketch.</desc>
    <defs>
        <linearGradient x1="50%" y1="0%" x2="50%" y2="100%" id="linearGradient-1">
            <stop stop-color="#5CE8FF" offset="0%"></stop>
            <stop stop-color="#5466E0" offset="100%"></stop>
        </linearGradient>
    </defs>
    <g id="页面-1" stroke="none" stroke-width="1" fill="none" fill-rule="evenodd">
        <g id="首页-总览" transform="translate(-359.000000, -105.000000)" fill="url(#linearGradient-1)" fill-rule="nonzero">
            <g id="应用软件" transform="translate(343.000000, 94.000000)">
                <g id="yyrj_icon" transform="translate(16.000000, 11.000000)">
                    <path d="M12.0261174,3.33016553 L6.43569977,0.0628561712 C6.29673538,-0.0209520571 6.12339407,-0.0209520571 5.98442967,0.0628561712 L0.413897553,3.3298374 C0.272423549,3.41398932 0.222222222,3.56602333 0.222222222,3.73207127 L0.222222222,10.2676607 C0.222222222,10.4337223 0.274943098,10.5873423 0.418313536,10.6698946 L6.00873112,13.938161 C6.07602422,13.9782104 6.15262995,13.9995475 6.2307494,14 C6.30937015,14 6.38643312,13.978316 6.45717012,13.938161 L12.0283254,10.6695664 C12.1694743,10.5857563 12.2222222,10.4337223 12.2222222,10.2676607 L12.2222222,3.73208494 C12.2222222,3.56602333 12.1675914,3.41238968 12.0261174,3.33016553 Z M9.82063193,5.56510652 L6.53799886,7.43828313 L6.53799886,11.186236 C6.53799886,11.1922927 6.53642753,11.1977206 6.53642753,11.2031347 C6.5291669,11.3956382 6.48716088,11.5451292 6.32232009,11.5785986 C6.24921218,11.6257011 6.16431836,11.6507989 6.07758524,11.6509515 L6.05106225,11.6509515 C5.79677534,11.6509515 5.59063508,11.4428913 5.59063508,11.186236 L5.59063508,7.33468945 C5.59063508,7.30346232 5.59379128,7.27286411 5.59979214,7.24322295 L2.65632282,5.56669249 C2.43495475,5.43952807 2.31053511,5.15393109 2.43652608,4.93145829 C2.5656868,4.70994255 2.82021539,4.63217551 3.03999859,4.7593536 L6.23485383,6.62965907 L9.4363195,4.75966806 C9.65611625,4.63248997 9.90148776,4.70835658 10.0278038,4.93051492 C10.1541199,5.15267325 10.0407402,5.43792843 9.82064547,5.56510652 L9.82063193,5.56510652 Z" id="形状"></path>
                </g>
            </g>
        </g>
    </g>
</svg>