<?xml version="1.0" encoding="UTF-8"?>
<svg width="13px" height="12px" viewBox="0 0 13 12" version="1.1" xmlns="http://www.w3.org/2000/svg" xmlns:xlink="http://www.w3.org/1999/xlink">
    <!-- Generator: Sketch 64 (93537) - https://sketch.com -->
    <title>zjj_icon</title>
    <desc>Created with Sketch.</desc>
    <defs>
        <linearGradient x1="50%" y1="0%" x2="50%" y2="100%" id="linearGradient-1">
            <stop stop-color="#5CE8FF" offset="0%"></stop>
            <stop stop-color="#5466E0" offset="100%"></stop>
        </linearGradient>
    </defs>
    <g id="页面-1" stroke="none" stroke-width="1" fill="none" fill-rule="evenodd">
        <g id="首页-总览" transform="translate(-985.000000, -106.000000)" fill="url(#linearGradient-1)" fill-rule="nonzero">
            <g id="中间键" transform="translate(969.000000, 94.000000)">
                <g id="zjj_icon" transform="translate(16.000000, 12.000000)">
                    <path d="M3.31413292,5.78547119 L3.31413292,2.76866935 L6.33093181,2.76866935 C5.88339847,1.99270833 6.05743204,1.00745011 6.74371694,0.431764334 C7.43000183,-0.143921445 8.43051147,-0.143921445 9.11679636,0.431764334 C9.80308125,1.00745011 9.97711483,1.99270833 9.52958149,2.76866935 L12.5454545,2.76866935 L12.5454545,5.78547119 C11.7694943,5.33793741 10.784237,5.51197116 10.2085518,6.19825672 C9.63286659,6.88454228 9.63286659,7.88505291 10.2085518,8.57133847 C10.784237,9.25762403 11.7694943,9.43165778 12.5454545,8.984124 L12.5454545,12 L9.52865566,12 C9.97618899,11.224039 9.80215542,10.2387808 9.11587053,9.66309498 C8.42958564,9.0874092 7.42907599,9.0874092 6.7427911,9.66309498 C6.05650621,10.2387808 5.88247263,11.224039 6.33000597,12 L3.3141212,12 L3.3141212,8.98319816 C2.53816093,9.43073194 1.55290367,9.25669819 0.977218458,8.57041263 C0.401533241,7.88412707 0.401533241,6.88361645 0.977218458,6.19733089 C1.55290367,5.51104532 2.53816093,5.33701158 3.3141212,5.78454535 L3.31413292,5.78547119 Z" id="路径"></path>
                </g>
            </g>
        </g>
    </g>
</svg>